<?xml version="1.0" encoding="UTF-8" standalone="no"?>
<!-- Created with Inkscape (http://www.inkscape.org/) -->

<svg
   width="7.007874in"
   height="5in"
   viewBox="0 0 178 127"
   version="1.1"
   id="svg1"
   xml:space="preserve"
   inkscape:version="1.4.2 (ebf0e940d0, 2025-05-08)"
   sodipodi:docname="aircycles-logo-comic-neue-sticker.svg"
   inkscape:export-filename="aircycles-logo-comic-neue-sticker.png"
   inkscape:export-xdpi="1200"
   inkscape:export-ydpi="1200"
   xmlns:inkscape="http://www.inkscape.org/namespaces/inkscape"
   xmlns:sodipodi="http://sodipodi.sourceforge.net/DTD/sodipodi-0.dtd"
   xmlns="http://www.w3.org/2000/svg"
   xmlns:svg="http://www.w3.org/2000/svg"><sodipodi:namedview
     id="namedview1"
     pagecolor="#ffffff"
     bordercolor="#666666"
     borderopacity="1.0"
     inkscape:showpageshadow="2"
     inkscape:pageopacity="0.0"
     inkscape:pagecheckerboard="0"
     inkscape:deskcolor="#d1d1d1"
     inkscape:document-units="mm"
     inkscape:zoom="1.069637"
     inkscape:cx="331.42085"
     inkscape:cy="328.61616"
     inkscape:window-width="1920"
     inkscape:window-height="1182"
     inkscape:window-x="0"
     inkscape:window-y="18"
     inkscape:window-maximized="1"
     inkscape:current-layer="layer1"
     showgrid="false" /><defs
     id="defs1"><rect
       x="0"
       y="143.63818"
       width="575.73004"
       height="75.351173"
       id="rect2" /><inkscape:path-effect
       effect="envelope"
       id="path-effect27"
       is_visible="true"
       lpeversion="1"
       yy="true"
       xx="true"
       bendpath1="M 39.44675,101 H 98.510506"
       bendpath2="m 98.510506,101 v 30"
       bendpath3="M 39.44675,131 H 98.510506"
       bendpath4="m 39.44675,101 v 30" /><rect
       x="91.184647"
       y="547.89398"
       width="160.69006"
       height="137.65791"
       id="rect20" /><rect
       x="127.34408"
       y="533.74463"
       width="585.95636"
       height="126.558"
       id="rect19" /><rect
       x="38.080082"
       y="413.47522"
       width="118.47504"
       height="43.360374"
       id="rect18" /><rect
       x="36.384766"
       y="279.05646"
       width="99.606133"
       height="51.88092"
       id="rect17" /><rect
       x="35.373356"
       y="161.93137"
       width="79.393532"
       height="44.806248"
       id="rect16" /><rect
       x="133.63287"
       y="385.91577"
       width="619.14404"
       height="134.26155"
       id="rect1" /><rect
       x="133.63287"
       y="385.91577"
       width="619.14404"
       height="134.26155"
       id="rect1-5" /><rect
       x="133.63287"
       y="385.91577"
       width="619.14404"
       height="134.26155"
       id="rect1-5-6" /><rect
       x="133.63287"
       y="385.91577"
       width="619.14404"
       height="134.26155"
       id="rect1-5-65" /><rect
       x="91.184647"
       y="547.89398"
       width="652.77271"
       height="180.01108"
       id="rect20-7" /><rect
       x="38.080082"
       y="413.47522"
       width="118.47504"
       height="43.360374"
       id="rect18-1" /><inkscape:path-effect
       effect="envelope"
       id="path-effect27-8"
       is_visible="true"
       lpeversion="1"
       yy="true"
       xx="true"
       bendpath1="M 39.44675,101 H 98.510506"
       bendpath2="m 98.510506,101 v 30"
       bendpath3="M 39.44675,131 H 98.510506"
       bendpath4="m 39.44675,101 v 30" /></defs><g
     inkscape:label="Layer 1"
     inkscape:groupmode="layer"
     id="layer1"><text
       xml:space="preserve"
       transform="scale(0.26458333)"
       id="text19"
       style="font-size:18.6667px;line-height:1.25;font-family:'DejaVu Sans';-inkscape-font-specification:'DejaVu Sans, Normal';letter-spacing:0px;word-spacing:0px;white-space:pre;shape-inside:url(#rect19);display:inline" /><g
       id="g5"
       transform="matrix(1.0000166,0,0,0.99979914,-3.1620261e-4,-2.6503897)"><g
         id="g2"
         transform="translate(-0.98699411,-0.20072924)"><path
           id="text1-4-7"
           style="font-size:18.6667px;line-height:1.25;font-family:Lato;-inkscape-font-specification:Lato;letter-spacing:0px;word-spacing:0px;white-space:pre;shape-inside:url(#rect1-5-6);stroke-width:0.395884"
           d="m 81.324149,100.90316 c -0.599353,-0.029 -1.330076,0.40473 -1.181218,1.1842 -0.0144,9.4524 -0.07032,18.90544 0.03991,28.35735 0.398126,0.54572 1.217688,-0.14022 0.940247,-0.73547 0.0072,-6.16547 0.0046,-3.79294 0.01182,-9.95842 2.674249,-0.33475 5.628184,-1.0655 8.102655,0.53606 3.484352,2.05304 5.878402,5.70701 7.910379,9.35386 0.18174,0.498 0.784239,1.40363 1.246496,0.72932 0.312826,-0.73109 -0.41971,-1.29595 -0.629234,-1.93523 -2.144548,-4.00254 -5.189087,-7.355 -8.767315,-9.76855 2.949889,-1.15293 6.143402,-2.65022 7.761634,-5.8389 1.709568,-3.45023 0.121352,-8.2989 -3.127001,-9.77132 -3.752071,-2.26747 -8.145923,-2.16551 -12.308382,-2.1529 0,0 9e-6,0 9e-6,0 z m -31.270578,0.11196 c -0.840638,0.43083 -0.756306,1.66578 -1.189958,2.44835 -0.803867,2.25792 -5.244297,14.79562 -6.048164,17.05354 -0.935198,0.39111 -2.149535,0.24857 -2.87199,1.06478 -0.02063,0.82501 0.958056,0.80846 1.424629,0.47002 0.267767,-0.2166 1.086088,-0.35994 0.791134,0.22432 -0.871316,2.72724 -1.932714,5.37624 -2.751919,8.12466 0.162546,0.68946 1.21533,0.43582 1.145248,-0.26565 1.019191,-2.84442 2.02518,-5.69463 3.021797,-8.54895 4.238504,-1.04509 7.097673,-1.74967 11.336176,-2.79477 1.2562,4.01274 2.396525,8.07154 3.790552,12.03088 0.566874,0.35635 1.165697,-0.61737 0.711592,-1.10868 -2.928791,-9.52001 -5.82519,-19.05279 -8.860391,-28.53165 -0.109147,-0.17137 -0.321695,-0.26324 -0.498706,-0.16685 z m 22.134223,0.48957 c -3.131375,0.0403 -6.265241,-0.0739 -9.394577,0.0965 -0.468725,0.44223 0.142175,1.28494 0.650485,1.00989 1.384032,0.12681 2.85084,-0.12418 4.182814,0.13611 0.571933,1.13107 0.07625,2.46204 0.248367,3.67866 0,7.68864 0,15.37729 0,23.06593 -1.712492,0.0611 -3.434938,-0.12866 -5.13883,0.13613 -0.414159,0.5994 0.355666,1.2153 0.871649,1.00067 3.414821,-0.051 6.850299,0.0616 10.252208,-0.0756 0.535457,-0.31474 0.07157,-1.37714 -0.489415,-1.07657 -1.434159,0.004 -3.004906,0.0114 -4.439066,0.0153 0,-8.95217 0,-17.90436 0,-26.85655 1.68289,-0.0718 3.436538,0.18254 5.07378,-0.17562 0.377235,-0.63313 -0.348969,-1.18865 -0.880631,-0.97648 -0.312261,0.006 -0.624522,0.0142 -0.936784,0.0215 z m 11.462331,0.50933 c 3.724834,0.0731 7.753565,0.38014 10.838657,2.96301 2.279888,2.02698 2.655067,6.24077 0.590164,8.60686 -2.093633,2.59714 -5.250522,3.62817 -8.21426,4.33897 -1.886167,0.4154 -3.810471,0.58057 -5.729769,0.67097 0,0 0,-16.47224 0,-16.47223 0.838186,-0.0429 1.676464,-0.0811 2.515208,-0.10759 0,0 0,0 0,1e-5 z m -33.545303,1.45997 c 2.840268,9.11531 1.596826,5.12416 4.437094,14.23948 9.074721,-2.21627 -19.590892,4.7871 -10.516171,2.57083 0.712352,-2.0373 5.278023,-15.06062 5.990375,-17.09792 0.02395,0.0777 0.06475,0.20995 0.0887,0.28761 1e-6,0 2e-6,0 2e-6,0 z"
           inkscape:path-effect="#path-effect27"
           inkscape:original-d="m 81.363596,101.00416 c -0.599353,-0.029 -1.330076,0.40473 -1.181218,1.1842 -0.0144,9.4524 -0.07032,18.90544 0.03991,28.35735 0.398126,0.54572 1.217688,-0.14022 0.940247,-0.73547 0.0039,-3.31946 0.0081,-6.63895 0.01182,-9.95842 2.674249,-0.33475 5.628184,-1.0655 8.102655,0.53606 3.484352,2.05304 5.878402,5.70701 7.910379,9.35386 0.18174,0.498 0.784239,1.40363 1.246496,0.72932 0.312826,-0.73109 -0.41971,-1.29595 -0.629234,-1.93523 -2.144548,-4.00254 -5.189087,-7.355 -8.767315,-9.76855 2.949889,-1.15293 6.143402,-2.65022 7.761634,-5.8389 1.709568,-3.45023 0.121352,-8.2989 -3.127001,-9.77132 -3.752071,-2.26747 -8.145923,-2.16551 -12.308382,-2.1529 z m -31.270578,0.11196 c -0.840638,0.43083 -0.756306,1.66578 -1.189958,2.44835 -2.022754,5.68156 -4.034739,11.36794 -6.048164,17.05354 -0.935198,0.39111 -2.149535,0.24857 -2.87199,1.06478 -0.02063,0.82501 0.958056,0.80846 1.424629,0.47002 0.267767,-0.2166 1.086088,-0.35994 0.791134,0.22432 -0.871316,2.72724 -1.932714,5.37624 -2.751919,8.12466 0.162546,0.68946 1.21533,0.43582 1.145248,-0.26565 1.019191,-2.84442 2.02518,-5.69463 3.021797,-8.54895 3.7787,-0.93172 7.557488,-1.863 11.336176,-2.79477 1.2562,4.01274 2.396525,8.07154 3.790552,12.03088 0.566874,0.35635 1.165697,-0.61737 0.711592,-1.10868 -2.928791,-9.52001 -5.82519,-19.05279 -8.860391,-28.53165 -0.109147,-0.17137 -0.321695,-0.26324 -0.498706,-0.16685 z m 22.134223,0.48957 c -3.131375,0.0403 -6.265241,-0.0739 -9.394577,0.0965 -0.468725,0.44223 0.142175,1.28494 0.650485,1.00989 1.384032,0.12681 2.85084,-0.12418 4.182814,0.13611 0.571933,1.13107 0.07625,2.46204 0.248367,3.67866 0,7.68864 0,15.37729 0,23.06593 -1.712492,0.0611 -3.434938,-0.12866 -5.13883,0.13613 -0.414159,0.5994 0.355666,1.2153 0.871649,1.00067 3.414821,-0.051 6.850299,0.0616 10.252208,-0.0756 0.535457,-0.31474 0.07157,-1.37714 -0.489415,-1.07657 -1.47969,0.004 -2.959377,0.0112 -4.439066,0.0153 0,-8.95217 0,-17.90436 0,-26.85655 1.68289,-0.0718 3.436538,0.18254 5.07378,-0.17562 0.377235,-0.63313 -0.348969,-1.18865 -0.880631,-0.97648 -0.312261,0.006 -0.624522,0.0142 -0.936784,0.0215 z m 11.462331,0.50933 c 3.724834,0.0731 7.753565,0.38014 10.838657,2.96301 2.279888,2.02698 2.655067,6.24077 0.590164,8.60686 -2.093633,2.59714 -5.250522,3.62817 -8.21426,4.33897 -1.886167,0.4154 -3.810471,0.58057 -5.729769,0.67097 0,-5.49075 0,-10.98149 0,-16.47223 0.838186,-0.0429 1.676464,-0.0811 2.515208,-0.10759 z m -33.545303,1.45997 c 1.478979,4.74651 2.958375,9.49286 4.437094,14.23948 -3.505543,0.85614 -7.011237,1.7116 -10.516171,2.57083 1.993308,-5.7008 3.991988,-11.39931 5.990375,-17.09792 0.02957,0.0959 0.05913,0.19172 0.0887,0.28761 z"
           transform="matrix(1.0222273,0,0,0.98978004,-20.221268,-87.667087)" /><path
           id="path16"
           style="font-size:30.901px;line-height:1.25;font-family:'Comic Neue';-inkscape-font-specification:'Comic Neue, Normal';letter-spacing:0px;word-spacing:0px;stroke-width:0.210081"
           d="m 144.97797,12.405724 c -2.89747,0.0651 -5.80925,-0.06419 -8.69727,0.134765 -1.51361,0.783333 -1.66959,2.708987 -1.60089,4.219139 0.0935,7.744696 -0.14622,15.500101 0.18081,23.237491 0.28019,1.280246 1.65131,2.281407 2.95953,1.914273 2.70969,-0.04298 5.4394,0.126191 8.13438,-0.161918 1.58147,-1.031303 1.67089,-3.234155 1.19531,-4.880859 -0.41218,-1.155539 -1.70831,-1.930922 -2.91833,-1.624525 -1.7643,0.0567 -3.5297,0.02697 -5.29456,0.03077 0,-1.781901 0,-3.563802 0,-5.345703 2.03192,-0.04429 4.08834,0.127226 6.10156,-0.173828 1.58711,-1.085279 1.67724,-3.341246 1.10938,-5.007813 -0.47212,-1.091843 -1.76102,-1.734383 -2.91445,-1.430944 -1.43214,0.01325 -2.8643,0.01747 -4.29649,0.01297 0,-1.420573 0,-2.841146 0,-4.261719 2.33057,-0.03192 4.67767,0.102953 6.99609,-0.136719 1.58149,-0.951047 1.73999,-3.112349 1.29324,-4.728913 -0.29886,-0.958886 -1.14915,-1.935896 -2.24831,-1.796477 z" /><path
           id="path15"
           style="font-size:30.901px;line-height:1.25;font-family:'Comic Neue';-inkscape-font-specification:'Comic Neue, Normal';letter-spacing:0px;word-spacing:0px;stroke-width:0.209149"
           d="m 125.11859,12.249474 c -1.5044,0.301802 -2.01027,2.05154 -1.99203,3.392968 0.0464,8.125743 -0.0844,16.257635 0.12733,24.379206 0.18568,1.250846 1.4402,2.475074 2.7642,2.03218 2.26101,-0.402293 4.59673,-0.423894 6.81339,-1.030916 1.58443,-1.361362 1.66913,-3.927796 0.58594,-5.613281 -0.75497,-0.903265 -2.05749,-0.791968 -3.07295,-0.502787 -1.00042,0.128533 -2.00085,0.257066 -3.00127,0.385599 -0.0454,-6.972595 0.12393,-13.955782 -0.14594,-20.921083 -0.22731,-0.985659 -0.88765,-2.226594 -2.07867,-2.121886 z" /><path
           id="path14"
           style="font-size:30.901px;line-height:1.25;font-family:'Comic Neue';-inkscape-font-specification:'Comic Neue, Normal';letter-spacing:0px;word-spacing:0px;stroke-width:0.210792"
           d="m 107.98383,12.259239 c -1.49935,0.447467 -1.77636,2.209279 -2.1892,3.491477 -0.90373,2.85831 -1.80746,5.71662 -2.71119,8.57493 -1.24338,-3.802291 -2.25128,-7.690493 -3.767581,-11.396485 -0.823983,-1.191783 -2.920918,-0.620708 -3.127147,0.784188 -0.91379,2.157223 0.200448,4.427892 0.821783,6.497647 1.228553,3.872982 2.441339,7.750902 3.643255,11.632228 -0.5304,2.447382 -1.843893,4.735 -1.892578,7.283203 -0.03165,1.266985 0.673444,2.899955 2.105468,2.994141 1.30192,-0.06868 1.86733,-1.482017 2.16494,-2.558648 2.38676,-7.83651 5.08715,-15.581335 7.31008,-23.465003 0.22177,-1.428356 -0.2621,-3.261148 -1.74327,-3.801853 -0.19652,-0.06884 -0.41074,-0.06504 -0.61456,-0.03582 z" /><path
           id="path13"
           style="font-size:30.901px;line-height:1.25;font-family:'Comic Neue';-inkscape-font-specification:'Comic Neue, Normal';letter-spacing:0px;word-spacing:0px;stroke-width:0.209992"
           d="m 153.80414,12.210411 c -2.64154,0.09297 -4.60311,2.450533 -5.25768,4.847333 -0.93192,3.580468 -0.65857,7.812106 1.91127,10.675876 1.42708,1.672934 3.98822,2.149843 5.04758,4.125229 0.57541,1.394599 0.0742,3.466632 -1.53143,3.865831 -1.39348,0.101448 -2.26231,-1.378203 -2.40998,-2.580675 -0.16488,-1.101967 -0.8574,-2.407852 -2.12109,-2.416015 -1.31092,0.08953 -2.0062,1.490311 -2.05868,2.66592 -0.20585,2.301187 0.67884,4.611405 2.03524,6.439549 1.28892,1.693308 3.61165,2.873045 5.7143,2.039948 2.51956,-0.94123 3.92467,-3.556316 4.42722,-6.065802 0.85503,-3.687711 0.20261,-7.973744 -2.55437,-10.722796 -1.36439,-1.312159 -3.39179,-1.857266 -4.48148,-3.456028 -0.63172,-1.122115 -0.18538,-2.968162 1.25371,-3.141026 1.00991,-0.168945 2.05029,0.718026 1.92997,1.760836 0.12415,1.119126 0.82781,2.534903 2.12452,2.505738 1.39977,-0.159064 1.95159,-1.768405 1.98616,-2.987705 0.19673,-2.725838 -0.86975,-5.838311 -3.45081,-7.112854 -0.80173,-0.360137 -1.69202,-0.468949 -2.56445,-0.443359 z" /><path
           id="path12"
           style="font-size:30.901px;line-height:1.25;font-family:'Comic Neue';-inkscape-font-specification:'Comic Neue, Normal';letter-spacing:0px;word-spacing:0px;stroke-width:0.210478"
           d="m 116.2182,12.210411 c -2.47937,0.493699 -4.02697,2.789677 -4.98349,4.951228 -2.66484,5.97723 -3.1936,12.941708 -1.27818,19.211444 0.81431,2.47629 2.51769,4.983192 5.16847,5.67454 2.38083,0.509887 4.756,-1.007476 5.92133,-3.026664 1.16581,-1.767066 1.99687,-4.11031 1.07031,-6.158204 -0.40502,-0.91552 -1.61213,-1.738718 -2.55371,-1.065864 -1.35453,0.992466 -1.26326,3.235076 -2.99902,3.810005 -1.32473,0.31348 -2.27594,-1.008379 -2.68587,-2.090223 -0.93952,-2.328911 -0.82438,-4.924355 -0.62628,-7.389363 0.27818,-2.451754 0.9707,-4.967508 2.40785,-6.99893 0.56984,-0.605538 1.86952,-0.477812 1.9341,0.493135 0.17235,0.979144 0.5363,2.145537 1.62449,2.42874 0.98419,0.300025 2.01212,-0.412025 2.22852,-1.386719 0.62209,-1.638095 0.33284,-3.434727 0.33266,-5.141295 -0.12865,-1.127504 -0.9363,-2.444011 -2.2018,-2.403627 -0.67594,0.347961 -1.07875,-0.51242 -1.69209,-0.628505 -0.52312,-0.222836 -1.09999,-0.315966 -1.66729,-0.279698 z" /><path
           id="text9"
           style="font-size:30.901px;line-height:1.25;font-family:'Comic Neue';-inkscape-font-specification:'Comic Neue, Normal';letter-spacing:0px;word-spacing:0px;stroke-width:0.210371"
           d="m 89.544375,12.210411 c -2.513672,0.51999 -4.059073,2.867634 -5.021137,5.064858 -2.626808,6.009152 -3.147844,12.992683 -1.16351,19.265367 0.829246,2.427962 2.540047,4.880222 5.16302,5.51624 2.444298,0.491433 4.841714,-1.141343 5.976651,-3.232217 1.145152,-1.781368 1.899044,-4.183466 0.834038,-6.176747 -0.468292,-0.859765 -1.726161,-1.524369 -2.558543,-0.755191 -1.229745,1.037714 -1.19423,3.19102 -2.902,3.712024 -1.341665,0.29163 -2.283174,-1.05984 -2.682035,-2.158005 -0.962265,-2.479554 -0.8008,-5.218152 -0.533291,-7.821442 0.340307,-2.33602 0.984679,-4.710554 2.461026,-6.606293 0.636964,-0.54415 1.883835,-0.198799 1.845387,0.739124 0.112347,1.143328 0.921537,2.495584 2.228942,2.362772 1.280319,-0.146918 1.729923,-1.572174 1.90028,-2.66049 0.152207,-1.428416 0.07587,-2.883753 -0.05859,-4.306641 -0.204609,-0.985304 -1.013811,-2.168567 -2.144874,-1.989565 -0.710711,0.211833 -1.135082,-0.592914 -1.78677,-0.721372 -0.49677,-0.185224 -1.028297,-0.272792 -1.558594,-0.232422 z" /><path
           style="font-size:42.6667px;line-height:1.25;font-family:'Comic Neue';-inkscape-font-specification:'Comic Neue, Normal';letter-spacing:0px;word-spacing:0px;white-space:pre;stroke-width:0.26297"
           d="m 23.193772,56.906086 c 1.301528,0 2.277674,-0.706864 2.311335,-2.288895 l 0.12342,-5.127572 c 0,-0.213182 -0.168301,-0.359041 -0.359042,-0.359041 -0.269282,0 -0.347822,0.201961 -0.347822,0.460021 -0.291722,-0.15708 -0.695645,-0.336601 -1.200548,-0.336601 -1.514709,0 -2.659156,1.413727 -2.659156,2.928438 0,1.537151 0.964926,2.670376 2.232794,2.670376 0.605884,-0.01123 1.144447,-0.302942 1.525929,-0.819065 l -0.02244,0.561004 c -0.04488,0.976146 -0.460023,1.615689 -1.61569,1.615689 -0.807845,0 -1.054687,-0.15708 -1.279088,-0.15708 -0.190741,0 -0.359042,0.145862 -0.359042,0.347823 0,0.168301 0.12342,0.302942 0.280501,0.336602 0.347822,0.07854 0.841506,0.168301 1.368849,0.168301 z m 0.01122,-2.726478 c -1.054687,0 -1.50349,-1.144446 -1.50349,-1.974732 0,-1.290308 0.931266,-2.255235 2.064493,-2.255235 0.415143,0 0.863946,0.145861 1.099567,0.336604 v 1.582029 c 0,1.76155 -0.886385,2.311334 -1.66057,2.311334 z m 4.600237,-5.800775 c 0.179521,0 0.347822,-0.134641 0.347822,-0.336602 l 0.01122,-0.460024 c 0,-0.168301 -0.157081,-0.347823 -0.336602,-0.347823 -0.179522,0 -0.359043,0.157082 -0.359043,0.336602 l -0.01122,0.460024 c 0,0.19074 0.157081,0.347823 0.347823,0.347823 z m -0.06732,6.4852 c 0.190741,0 0.359042,-0.168301 0.359042,-0.359044 l 0.06732,-4.869508 c 0,-0.201962 -0.157081,-0.370262 -0.359042,-0.370262 -0.190742,0 -0.370263,0.1683 -0.370263,0.370262 l -0.06732,4.869508 c 0,0.190743 0.168301,0.359044 0.370262,0.359044 z m 2.81623,0.01123 c 0.179521,0 0.347822,-0.157083 0.347822,-0.336605 V 49.96087 h 1.256648 c 0.201961,0 0.359042,-0.168301 0.359042,-0.359041 0,-0.201961 -0.157081,-0.347823 -0.359042,-0.347823 h -1.256648 v -1.53715 c 0,-0.19074 -0.134641,-0.359041 -0.347822,-0.359041 -0.201961,0 -0.359042,0.168301 -0.359042,0.359041 v 1.53715 h -1.222988 c -0.190741,0 -0.370262,0.134641 -0.370262,0.347823 0,0.19074 0.157081,0.359041 0.347822,0.359041 h 1.245428 v 4.57778 c 0,0.179522 0.168301,0.336605 0.359042,0.336605 z m 2.92843,0 c 0.190741,0 0.347822,-0.134644 0.347822,-0.370265 v -1.81765 c 0,-0.370262 0.03366,-0.695646 0.168301,-0.964927 0.168301,-0.359041 1.021027,-1.795211 1.941072,-1.795211 0.381483,0 0.863946,0.347823 0.863946,3.1865 0,0.684424 -0.02244,1.222987 -0.02244,1.41373 0,0.179519 0.168301,0.336602 0.347822,0.336602 0.190741,0 0.325382,-0.145862 0.336602,-0.336602 0.03366,-0.381483 0.03366,-0.751745 0.03366,-1.492269 0,-2.535738 -0.370262,-3.803604 -1.503489,-3.803604 -0.886386,0 -1.750331,0.875165 -2.165474,1.727891 v -3.444563 c 0,-0.19074 -0.134641,-0.359041 -0.347822,-0.359041 -0.201961,0 -0.359042,0.168301 -0.359042,0.359041 v 7.012545 c 0,0.179519 0.168301,0.347823 0.359042,0.347823 z m 7.180838,0.02243 c 0.830285,0 1.54837,-0.471242 1.840091,-0.852725 v 0.426361 c 0,0.224403 0.157082,0.392704 0.392703,0.392704 0.190741,0 0.370262,-0.168301 0.370262,-0.347823 v -4.94805 c 0,-0.190743 -0.157081,-0.314162 -0.336602,-0.314162 -0.168301,0 -0.336602,0.123419 -0.336602,0.314162 l -0.04488,3.422121 c 0,0.134641 0,0.347823 -0.134641,0.504903 -0.224401,0.258063 -0.987366,0.774184 -1.739111,0.774184 -0.740524,0 -1.021026,-0.650762 -1.021026,-2.210354 0,-1.638128 0.134641,-2.086932 0.134641,-2.468415 0,-0.213182 -0.145861,-0.336601 -0.325382,-0.336601 -0.213182,0 -0.314162,0.123419 -0.359043,0.415143 -0.08976,0.527342 -0.145861,1.335186 -0.13464,2.389873 0.02244,2.187915 0.527343,2.838679 1.69423,2.838679 z m 4.555344,-0.03366 c 0.190741,0 0.336602,-0.157083 0.336602,-0.302942 v -0.08976 c 0.336602,0.145862 0.931266,0.314163 1.481049,0.314163 1.69423,0 2.445975,-1.267869 2.445975,-2.962099 0,-1.52593 -0.796626,-2.468415 -1.963512,-2.468415 -0.751744,0 -1.469829,0.314163 -1.952292,0.863947 v -2.74892 c 0,-0.19074 -0.168301,-0.31416 -0.336602,-0.31416 -0.190741,0 -0.359042,0.12342 -0.359042,0.31416 v 7.068644 c 0,0.179522 0.168301,0.325384 0.347822,0.325384 z m 1.727891,-0.751745 c -0.594664,0 -1.178108,-0.19074 -1.380069,-0.280503 v -2.255232 c 0,-0.841507 0.852725,-1.514711 1.941071,-1.514711 0.774184,0 1.301529,0.628325 1.301529,1.761551 0,1.38007 -0.493684,2.288895 -1.862531,2.288895 z m 3.556764,0.751745 c 0.246842,0 0.482463,-0.246842 0.482463,-0.561005 0,-0.24684 -0.179521,-0.437582 -0.403922,-0.437582 -0.246842,0 -0.482463,0.258063 -0.482463,0.538563 0,0.258063 0.168301,0.460024 0.403922,0.460024 z m 3.893363,0 c 0.942485,0 1.705451,-0.516124 2.053271,-1.032248 0.06732,-0.08976 0.112202,-0.1683 0.112202,-0.25806 0,-0.179522 -0.15708,-0.336602 -0.347823,-0.336602 -0.134641,0 -0.235621,0.08976 -0.31416,0.201961 -0.314162,0.448804 -0.774187,0.774184 -1.50349,0.774184 -0.796626,0 -1.76155,-0.628325 -1.76155,-1.806431 0,-1.256648 0.920045,-2.490857 1.840089,-2.490857 0.561005,0 0.863946,0.246843 1.155667,0.594665 0.06732,0.07854 0.145862,0.12342 0.258063,0.12342 0.19074,0 0.336602,-0.15708 0.336602,-0.34782 0,-0.07854 -0.03366,-0.179522 -0.08976,-0.235624 -0.426364,-0.493682 -0.852725,-0.785402 -1.683011,-0.785402 -1.301529,0 -2.502075,1.615688 -2.502075,3.16406 0,1.380067 1.122007,2.434754 2.445975,2.434754 z m 5.239779,0 c 1.413727,0 2.614276,-1.38007 2.614276,-3.029419 0,-1.43617 -0.987366,-2.569395 -2.266456,-2.569395 -1.514709,0 -2.625495,1.503487 -2.625495,3.018198 0,1.447388 0.987367,2.580616 2.277675,2.580616 z m 0.04488,-0.639544 c -0.830284,0 -1.593249,-0.762966 -1.593249,-1.963514 0,-1.222988 0.830286,-2.356213 1.840091,-2.356213 0.908825,0 1.604471,0.931264 1.604471,1.985951 0,1.24543 -0.875165,2.333776 -1.851313,2.333776 z m 4.330938,0.639544 c 0.190743,0 0.347823,-0.157083 0.347823,-0.336602 V 52.85564 c 0,-0.875165 0.10098,-1.256648 0.504902,-1.828871 0.392704,-0.549784 0.976148,-1.099568 1.52593,-1.099568 0.605883,0 0.863946,0.392704 0.863946,1.335189 v 3.265041 c 0,0.179519 0.168301,0.336602 0.359041,0.336602 0.201962,0 0.347823,-0.157083 0.347823,-0.336602 v -2.535737 c 0,-1.290308 1.122007,-2.064493 1.739112,-2.064493 0.572223,0 0.886385,0.381483 0.886385,1.335189 v 3.265041 c 0,0.179519 0.15708,0.336602 0.347823,0.336602 0.19074,0 0.359041,-0.157083 0.359041,-0.336602 v -3.186499 c 0,-1.50349 -0.650764,-2.075713 -1.50349,-2.075713 -0.605883,0 -1.335186,0.336601 -1.907412,1.267866 -0.21318,-1.009806 -0.852723,-1.267866 -1.402507,-1.267866 -0.762966,0 -1.62691,0.661982 -2.120594,1.638128 v -1.290308 c 0,-0.17952 -0.145862,-0.34782 -0.347823,-0.34782 -0.19074,0 -0.359041,0.1683 -0.359041,0.34782 v 4.914392 c 0,0.179519 0.168301,0.336602 0.359041,0.336602 z m 8.706775,1.301529 c 0.12342,0 0.235621,-0.0561 0.269281,-0.157083 l 3.511881,-8.336513 c 0.03366,-0.06732 0.10098,-0.179519 0.10098,-0.2805 0,-0.13464 -0.145859,-0.291723 -0.31416,-0.291723 -0.112201,0 -0.235621,0.04488 -0.291723,0.157083 l -3.556761,8.426272 c -0.02243,0.0561 -0.03366,0.112199 -0.03366,0.17952 0,0.157082 0.12342,0.302944 0.314163,0.302944 z m 6.070062,-1.301529 c 0.942485,0 1.705451,-0.516124 2.053271,-1.032248 0.06732,-0.08976 0.112202,-0.1683 0.112202,-0.25806 0,-0.179522 -0.15708,-0.336602 -0.347823,-0.336602 -0.134641,0 -0.235621,0.08976 -0.31416,0.201961 -0.314162,0.448804 -0.774187,0.774184 -1.50349,0.774184 -0.796626,0 -1.76155,-0.628325 -1.76155,-1.806431 0,-1.256648 0.920046,-2.490857 1.840091,-2.490857 0.561003,0 0.863944,0.246843 1.155668,0.594665 0.06732,0.07854 0.145859,0.12342 0.25806,0.12342 0.19074,0 0.336602,-0.15708 0.336602,-0.34782 0,-0.07854 -0.03366,-0.179522 -0.08976,-0.235624 -0.426365,-0.493682 -0.852726,-0.785402 -1.683012,-0.785402 -1.301529,0 -2.502075,1.615688 -2.502075,3.16406 0,1.380067 1.122007,2.434754 2.445975,2.434754 z m 5.093912,0 c 0.908827,0 2.322555,-0.617104 2.322555,-2.311335 0,-0.886385 -0.426361,-1.649351 -1.234208,-2.019613 0.628325,-0.359041 1.065907,-0.953706 1.065907,-1.649349 0,-0.964928 -0.953706,-1.716673 -2.165473,-1.716673 -0.650764,0 -1.200548,0.224403 -1.525929,0.426365 -0.314162,0.201961 -0.381483,0.347822 -0.381483,0.471242 0,0.15708 0.112202,0.347823 0.347823,0.347823 0.08976,0 0.145859,-0.03366 0.24684,-0.112202 0.168301,-0.123419 0.549783,-0.426361 1.312749,-0.426361 0.942486,0 1.458609,0.527342 1.458609,1.009806 0,0.718084 -0.875164,1.323968 -1.649351,1.323968 -0.201961,0 -0.347821,0.145861 -0.347821,0.347823 0,0.19074 0.14586,0.34782 0.336602,0.34782 0.516124,0 1.840092,0.291723 1.840092,1.649351 0,1.099568 -0.886386,1.604471 -1.649351,1.604471 -0.953707,0 -1.424949,-0.628325 -1.570811,-0.886386 -0.0561,-0.123422 -0.15708,-0.190743 -0.31416,-0.190743 -0.190743,0 -0.336604,0.134641 -0.336604,0.325384 0,0.04488 0,0.134641 0.0561,0.2244 0.06732,0.145862 0.706864,1.234209 2.187912,1.234209 z m 4.342174,-6.4852 c 0.179522,0 0.347823,-0.134641 0.347823,-0.336602 l 0.01123,-0.460024 c 0,-0.168301 -0.15708,-0.347823 -0.336602,-0.347823 -0.179522,0 -0.359041,0.157082 -0.359041,0.336602 l -0.01123,0.460024 c 0,0.19074 0.15708,0.347823 0.347823,0.347823 z m -0.06732,6.4852 c 0.19074,0 0.359041,-0.168301 0.359041,-0.359044 l 0.06732,-4.869508 c 0,-0.201962 -0.15708,-0.370262 -0.359041,-0.370262 -0.190743,0 -0.370262,0.1683 -0.370262,0.370262 l -0.06732,4.869508 c 0,0.190743 0.168301,0.359044 0.370262,0.359044 z m 2.535724,0 c 0.201961,0 0.336602,-0.168301 0.336602,-0.370262 l 0.01123,-0.998587 c 0.01123,-0.819066 0.201961,-1.570811 0.706864,-2.490857 0.381483,-0.695643 0.908827,-1.077126 1.402509,-1.077126 0.751745,0 1.054687,0.403923 1.054687,2.513296 0,1.110786 0.01123,1.57081 0.01123,2.075713 0,0.179522 0.15708,0.347823 0.336602,0.347823 0.201961,0 0.336601,-0.168301 0.336601,-0.359044 0,-0.516121 0.01123,-0.964924 0.01123,-2.109373 0,-2.244012 -0.426364,-3.130397 -1.649351,-3.130397 -0.976146,0 -1.772772,0.751742 -2.210354,2.098152 v -1.772772 c 0,-0.19074 -0.15708,-0.336601 -0.347823,-0.336601 -0.19074,0 -0.359041,0.145861 -0.359041,0.336601 v 4.94805 c 0,0.168301 0.168301,0.325384 0.359041,0.325384 z m 6.294455,0 c 0.179522,0 0.347823,-0.157083 0.347823,-0.325384 v -4.633887 h 1.481048 c 0.179522,0 0.325383,-0.157083 0.325383,-0.336602 0,-0.168301 -0.179521,-0.314162 -0.325383,-0.314162 l -1.481048,-0.01123 c 0.01123,-1.256648 0.415143,-1.424949 1.69423,-1.424949 0.213182,0 0.336602,-0.168301 0.336602,-0.347823 0,-0.25806 -0.201961,-0.325381 -0.471243,-0.325381 -1.57081,0 -2.244014,0.516124 -2.255232,2.098153 H 95.82126 c -0.145861,0 -0.302941,0.157082 -0.302941,0.325383 0,0.17952 0.15708,0.336602 0.325381,0.336602 h 0.785405 v 4.633895 c 0,0.168301 0.168301,0.325384 0.359041,0.325384 z m 4.117762,0.02243 c 1.18932,0 1.92985,-0.841504 1.92985,-1.66057 0,-0.852725 -0.4488,-1.178106 -1.72789,-1.60447 -0.88639,-0.291721 -1.27909,-0.504903 -1.27909,-0.987367 0,-0.471242 0.4488,-0.751745 1.26787,-0.751745 0.76296,0 1.08835,0.258063 1.08835,0.650765 0,0.10098 -0.0337,0.157082 -0.0337,0.246842 0,0.168301 0.14586,0.314163 0.34782,0.314163 0.21318,0 0.34782,-0.179522 0.34782,-0.549784 0,-0.774185 -0.6171,-1.279087 -1.75033,-1.279087 -1.27909,0 -1.92985,0.572223 -1.92985,1.357628 0,0.819065 0.527342,1.256648 1.71667,1.62691 1.06591,0.314162 1.29031,0.561002 1.29031,1.009805 0,0.527345 -0.50491,0.987367 -1.23421,0.987367 -0.72931,0 -1.222989,-0.347823 -1.436168,-0.942485 -0.04488,-0.157083 -0.157083,-0.235622 -0.314163,-0.235622 -0.19074,0 -0.336601,0.145859 -0.336601,0.336602 0,0.437583 0.661982,1.481048 2.053272,1.481048 z m 5.28465,-0.02243 c 0.94248,0 1.70545,-0.516124 2.05327,-1.032248 0.0673,-0.08976 0.1122,-0.1683 0.1122,-0.25806 0,-0.179522 -0.15708,-0.336602 -0.34782,-0.336602 -0.13464,0 -0.23562,0.08976 -0.31416,0.201961 -0.31416,0.448804 -0.77419,0.774184 -1.50349,0.774184 -0.79663,0 -1.76155,-0.628325 -1.76155,-1.806431 0,-1.256648 0.92004,-2.490857 1.84009,-2.490857 0.561,0 0.86394,0.246843 1.15567,0.594665 0.0673,0.07854 0.14586,0.12342 0.25806,0.12342 0.19074,0 0.3366,-0.15708 0.3366,-0.34782 0,-0.07854 -0.0337,-0.179522 -0.0898,-0.235624 -0.42636,-0.493682 -0.85273,-0.785402 -1.68301,-0.785402 -1.30153,0 -2.50208,1.615688 -2.50208,3.16406 0,1.380067 1.12201,2.434754 2.44598,2.434754 z m 3.68019,0.01123 c 0.19074,0 0.34782,-0.134644 0.34782,-0.370265 v -1.81765 c 0,-0.370262 0.0337,-0.695646 0.1683,-0.964927 0.1683,-0.359041 1.02103,-1.795211 1.94107,-1.795211 0.38148,0 0.86395,0.347823 0.86395,3.1865 0,0.684424 -0.0224,1.222987 -0.0224,1.41373 0,0.179519 0.1683,0.336602 0.34782,0.336602 0.19074,0 0.32538,-0.145862 0.3366,-0.336602 0.0337,-0.381483 0.0337,-0.751745 0.0337,-1.492269 0,-2.535738 -0.37026,-3.803604 -1.50349,-3.803604 -0.88638,0 -1.75033,0.875165 -2.16547,1.727891 v -3.444563 c 0,-0.19074 -0.13465,-0.359041 -0.34782,-0.359041 -0.20197,0 -0.35905,0.168301 -0.35905,0.359041 v 7.012545 c 0,0.179519 0.1683,0.347823 0.35905,0.347823 z m 5.44172,1.290308 c 0.12342,0 0.23563,-0.0561 0.26929,-0.157083 l 3.51188,-8.336513 c 0.0337,-0.06732 0.10098,-0.179519 0.10098,-0.2805 0,-0.13464 -0.14586,-0.291723 -0.31416,-0.291723 -0.11221,0 -0.23562,0.04488 -0.29172,0.157083 l -3.55677,8.426272 c -0.0224,0.0561 -0.0337,0.112199 -0.0337,0.179519 0,0.157083 0.12342,0.302945 0.31416,0.302945 z m 7.67454,-1.21177 c 0.20196,0 0.34782,-0.168301 0.34782,-0.370262 v -4.85829 c -0.19074,-0.08976 -0.88639,-0.460022 -1.70545,-0.460022 -1.73911,0 -2.69282,1.705449 -2.69282,3.175279 0,1.44739 0.90883,2.423536 2.1206,2.423536 0.59466,0 1.18932,-0.258063 1.58202,-0.594665 v 0.314162 c 0,0.201961 0.11221,0.370262 0.34783,0.370262 z m -1.92985,-0.751745 c -0.81907,0 -1.40251,-0.684424 -1.40251,-1.783989 0,-1.43617 0.87516,-2.490857 1.99717,-2.490857 0.35904,0 0.79662,0.134641 0.99859,0.224403 l -0.0449,3.399679 c -0.25806,0.258063 -0.8976,0.650764 -1.54836,0.650764 z m 4.46559,-5.823214 c 0.17952,0 0.34783,-0.134641 0.34783,-0.336602 l 0.0112,-0.460024 c 0,-0.168301 -0.15708,-0.347823 -0.3366,-0.347823 -0.17952,0 -0.35904,0.157082 -0.35904,0.336602 l -0.0112,0.460024 c 0,0.19074 0.15708,0.347823 0.34783,0.347823 z m -0.0673,6.4852 c 0.19074,0 0.35904,-0.168301 0.35904,-0.359044 l 0.0673,-4.869509 c 0,-0.201961 -0.15708,-0.370262 -0.35904,-0.370262 -0.19074,0 -0.37026,0.168301 -0.37026,0.370262 l -0.0673,4.869509 c 0,0.190743 0.1683,0.359044 0.37026,0.359044 z m 2.53573,0 c 0.17952,0 0.34782,-0.157083 0.34782,-0.325384 l 0.0112,-2.479635 c 0,-0.381481 0.14586,-0.886386 0.38148,-1.189328 0.38148,-0.504902 0.86394,-0.942485 1.36885,-0.942485 0.30294,0 0.38148,0.145862 0.38148,0.325384 v 0.25806 c 0,0.168301 0.0785,0.347823 0.32538,0.347823 0.20197,0 0.34782,-0.145862 0.34782,-0.336602 V 50.16283 c 0,-0.426361 -0.20196,-0.931264 -0.93126,-0.931264 -0.93127,0 -1.53715,0.729303 -1.87375,1.323968 v -0.953706 c 0,-0.190743 -0.15708,-0.336602 -0.35904,-0.336602 -0.19075,0 -0.35905,0.145859 -0.35905,0.336602 v 4.936821 c 0,0.168301 0.17953,0.325384 0.35905,0.325384 z m 5.84564,0 c 0.94249,0 1.70545,-0.516124 2.05327,-1.032248 0.0673,-0.08976 0.11221,-0.168301 0.11221,-0.25806 0,-0.179522 -0.15708,-0.336602 -0.34783,-0.336602 -0.13464,0 -0.23562,0.08976 -0.31416,0.201961 -0.31416,0.448803 -0.77418,0.774184 -1.50349,0.774184 -0.79662,0 -1.76155,-0.628325 -1.76155,-1.806431 0,-1.256648 0.92005,-2.490857 1.84009,-2.490857 0.56101,0 0.86395,0.246842 1.15567,0.594665 0.0673,0.07854 0.14586,0.12342 0.25806,0.12342 0.19074,0 0.3366,-0.15708 0.3366,-0.34782 0,-0.07854 -0.0337,-0.179522 -0.0898,-0.235624 -0.42636,-0.493682 -0.85272,-0.785403 -1.68301,-0.785403 -1.30153,0 -2.50207,1.615689 -2.50207,3.164061 0,1.380067 1.122,2.434754 2.44597,2.434754 z m 3.84849,2.176694 c 0.15708,0 0.26928,-0.100981 0.3366,-0.224403 l 3.2426,-7.068645 c 0.0337,-0.0561 0.0337,-0.08976 0.0337,-0.15708 0,-0.201961 -0.15708,-0.347822 -0.34782,-0.347822 -0.1683,0 -0.2805,0.112201 -0.3366,0.224403 l -1.76155,3.848482 -1.90741,-3.826043 c -0.0561,-0.12342 -0.17952,-0.235622 -0.33661,-0.235622 -0.20196,0 -0.35904,0.15708 -0.35904,0.359042 0,0.06732 0.0224,0.13464 0.0449,0.190742 l 2.1767,4.342167 -1.08835,2.378655 c -0.0337,0.0561 -0.0449,0.112201 -0.0449,0.15708 0,0.201961 0.15708,0.359044 0.34782,0.359044 z m 6.40667,-2.176694 c 0.94249,0 1.70546,-0.516124 2.05328,-1.032248 0.0673,-0.08976 0.1122,-0.168301 0.1122,-0.25806 0,-0.179522 -0.15708,-0.336602 -0.34782,-0.336602 -0.13464,0 -0.23562,0.08976 -0.31417,0.201961 -0.31416,0.448803 -0.77418,0.774184 -1.50349,0.774184 -0.79662,0 -1.76155,-0.628325 -1.76155,-1.806431 0,-1.256648 0.92005,-2.490857 1.8401,-2.490857 0.561,0 0.86394,0.246842 1.15566,0.594665 0.0673,0.07854 0.14586,0.12342 0.25806,0.12342 0.19075,0 0.33661,-0.15708 0.33661,-0.34782 0,-0.07854 -0.0337,-0.179522 -0.0898,-0.235624 -0.42637,-0.493682 -0.85273,-0.785403 -1.68301,-0.785403 -1.30153,0 -2.50208,1.615689 -2.50208,3.164061 0,1.380067 1.12201,2.434754 2.44597,2.434754 z m 3.68019,0 c 0.1683,0 0.34782,-0.145862 0.34782,-0.314163 v -7.057423 c 0,-0.190743 -0.1683,-0.336602 -0.34782,-0.336602 -0.20197,0 -0.35905,0.145859 -0.35905,0.336602 v 7.057423 c 0,0.168301 0.17952,0.314163 0.35905,0.314163 z m 4.53291,0 c 0.68442,0 1.45861,-0.359044 1.85131,-0.807845 0.0449,-0.0561 0.0898,-0.145861 0.0898,-0.224403 0,-0.19074 -0.14586,-0.336601 -0.3366,-0.336601 -0.0898,0 -0.17952,0.04488 -0.2244,0.112201 -0.30294,0.325381 -0.89761,0.605883 -1.39129,0.605883 -0.86395,0 -1.51471,-0.370262 -1.89619,-1.088347 l 3.47822,-1.985953 c 0.19074,-0.112199 0.26928,-0.235621 0.26928,-0.359041 0,-0.493682 -0.66198,-1.514709 -2.10937,-1.514709 -1.52593,0 -2.52452,1.380068 -2.52452,2.905997 0,1.447391 1.09957,2.692818 2.7938,2.692818 z m -2.12059,-2.367434 c -0.0224,-0.134643 -0.0224,-0.235624 -0.0224,-0.359044 0.0224,-1.222987 0.78541,-2.210354 1.88498,-2.210354 0.77418,0 1.20055,0.269282 1.40251,0.762966 z m 6.74325,2.389873 c 1.18932,0 1.92985,-0.841505 1.92985,-1.66057 0,-0.852726 -0.4488,-1.178106 -1.72789,-1.604471 -0.88639,-0.29172 -1.27909,-0.504902 -1.27909,-0.987366 0,-0.471243 0.4488,-0.751745 1.26787,-0.751745 0.76296,0 1.08835,0.258063 1.08835,0.650765 0,0.10098 -0.0337,0.157082 -0.0337,0.246842 0,0.168301 0.14586,0.314162 0.34782,0.314162 0.21318,0 0.34782,-0.179521 0.34782,-0.549784 0,-0.774184 -0.61711,-1.279087 -1.75033,-1.279087 -1.27909,0 -1.92985,0.572224 -1.92985,1.357629 0,0.819065 0.52734,1.256648 1.71667,1.62691 1.0659,0.314162 1.2903,0.561002 1.2903,1.009805 0,0.527345 -0.5049,0.987367 -1.2342,0.987367 -0.72931,0 -1.22299,-0.347823 -1.43617,-0.942486 -0.0449,-0.157082 -0.15708,-0.235621 -0.31416,-0.235621 -0.19074,0 -0.33661,0.145859 -0.33661,0.336602 0,0.437582 0.66199,1.481048 2.05328,1.481048 z"
           id="text1"
           aria-label="github.com/c3infsch/aircycles" /></g></g><g
       id="g6"
       transform="translate(0,5.273858)"><g
         id="g4"><g
           id="g3"
           transform="translate(-1.830259,-0.13759624)"><path
             id="text1-4-7-7"
             style="font-size:18.6667px;line-height:1.25;font-family:Lato;-inkscape-font-specification:Lato;letter-spacing:0px;word-spacing:0px;white-space:pre;shape-inside:url(#rect1-5-6);stroke-width:0.395884"
             d="m 81.324149,100.90316 c -0.599353,-0.029 -1.330076,0.40473 -1.181218,1.1842 -0.0144,9.4524 -0.07032,18.90544 0.03991,28.35735 0.398126,0.54572 1.217688,-0.14022 0.940247,-0.73547 0.0072,-6.16547 0.0046,-3.79294 0.01182,-9.95842 2.674249,-0.33475 5.628184,-1.0655 8.102655,0.53606 3.484352,2.05304 5.878402,5.70701 7.910379,9.35386 0.18174,0.498 0.784239,1.40363 1.246496,0.72932 0.312826,-0.73109 -0.41971,-1.29595 -0.629234,-1.93523 -2.144548,-4.00254 -5.189087,-7.355 -8.767315,-9.76855 2.949889,-1.15293 6.143402,-2.65022 7.761634,-5.8389 1.709568,-3.45023 0.121352,-8.2989 -3.127001,-9.77132 -3.752071,-2.26747 -8.145923,-2.16551 -12.308382,-2.1529 0,0 9e-6,0 9e-6,0 z m -31.270578,0.11196 c -0.840638,0.43083 -0.756306,1.66578 -1.189958,2.44835 -0.803867,2.25792 -5.244297,14.79562 -6.048164,17.05354 -0.935198,0.39111 -2.149535,0.24857 -2.87199,1.06478 -0.02063,0.82501 0.958056,0.80846 1.424629,0.47002 0.267767,-0.2166 1.086088,-0.35994 0.791134,0.22432 -0.871316,2.72724 -1.932714,5.37624 -2.751919,8.12466 0.162546,0.68946 1.21533,0.43582 1.145248,-0.26565 1.019191,-2.84442 2.02518,-5.69463 3.021797,-8.54895 4.238504,-1.04509 7.097673,-1.74967 11.336176,-2.79477 1.2562,4.01274 2.396525,8.07154 3.790552,12.03088 0.566874,0.35635 1.165697,-0.61737 0.711592,-1.10868 -2.928791,-9.52001 -5.82519,-19.05279 -8.860391,-28.53165 -0.109147,-0.17137 -0.321695,-0.26324 -0.498706,-0.16685 z m 22.134223,0.48957 c -3.131375,0.0403 -6.265241,-0.0739 -9.394577,0.0965 -0.468725,0.44223 0.142175,1.28494 0.650485,1.00989 1.384032,0.12681 2.85084,-0.12418 4.182814,0.13611 0.571933,1.13107 0.07625,2.46204 0.248367,3.67866 0,7.68864 0,15.37729 0,23.06593 -1.712492,0.0611 -3.434938,-0.12866 -5.13883,0.13613 -0.414159,0.5994 0.355666,1.2153 0.871649,1.00067 3.414821,-0.051 6.850299,0.0616 10.252208,-0.0756 0.535457,-0.31474 0.07157,-1.37714 -0.489415,-1.07657 -1.434159,0.004 -3.004906,0.0114 -4.439066,0.0153 0,-8.95217 0,-17.90436 0,-26.85655 1.68289,-0.0718 3.436538,0.18254 5.07378,-0.17562 0.377235,-0.63313 -0.348969,-1.18865 -0.880631,-0.97648 -0.312261,0.006 -0.624522,0.0142 -0.936784,0.0215 z m 11.462331,0.50933 c 3.724834,0.0731 7.753565,0.38014 10.838657,2.96301 2.279888,2.02698 2.655067,6.24077 0.590164,8.60686 -2.093633,2.59714 -5.250522,3.62817 -8.21426,4.33897 -1.886167,0.4154 -3.810471,0.58057 -5.729769,0.67097 0,0 0,-16.47224 0,-16.47223 0.838186,-0.0429 1.676464,-0.0811 2.515208,-0.10759 0,0 0,0 0,1e-5 z m -33.545303,1.45997 c 2.840268,9.11531 1.596826,5.12416 4.437094,14.23948 9.074721,-2.21627 -19.590892,4.7871 -10.516171,2.57083 0.712352,-2.0373 5.278023,-15.06062 5.990375,-17.09792 0.02395,0.0777 0.06475,0.20995 0.0887,0.28761 1e-6,0 2e-6,0 2e-6,0 z"
             inkscape:path-effect="#path-effect27-8"
             inkscape:original-d="m 81.363596,101.00416 c -0.599353,-0.029 -1.330076,0.40473 -1.181218,1.1842 -0.0144,9.4524 -0.07032,18.90544 0.03991,28.35735 0.398126,0.54572 1.217688,-0.14022 0.940247,-0.73547 0.0039,-3.31946 0.0081,-6.63895 0.01182,-9.95842 2.674249,-0.33475 5.628184,-1.0655 8.102655,0.53606 3.484352,2.05304 5.878402,5.70701 7.910379,9.35386 0.18174,0.498 0.784239,1.40363 1.246496,0.72932 0.312826,-0.73109 -0.41971,-1.29595 -0.629234,-1.93523 -2.144548,-4.00254 -5.189087,-7.355 -8.767315,-9.76855 2.949889,-1.15293 6.143402,-2.65022 7.761634,-5.8389 1.709568,-3.45023 0.121352,-8.2989 -3.127001,-9.77132 -3.752071,-2.26747 -8.145923,-2.16551 -12.308382,-2.1529 z m -31.270578,0.11196 c -0.840638,0.43083 -0.756306,1.66578 -1.189958,2.44835 -2.022754,5.68156 -4.034739,11.36794 -6.048164,17.05354 -0.935198,0.39111 -2.149535,0.24857 -2.87199,1.06478 -0.02063,0.82501 0.958056,0.80846 1.424629,0.47002 0.267767,-0.2166 1.086088,-0.35994 0.791134,0.22432 -0.871316,2.72724 -1.932714,5.37624 -2.751919,8.12466 0.162546,0.68946 1.21533,0.43582 1.145248,-0.26565 1.019191,-2.84442 2.02518,-5.69463 3.021797,-8.54895 3.7787,-0.93172 7.557488,-1.863 11.336176,-2.79477 1.2562,4.01274 2.396525,8.07154 3.790552,12.03088 0.566874,0.35635 1.165697,-0.61737 0.711592,-1.10868 -2.928791,-9.52001 -5.82519,-19.05279 -8.860391,-28.53165 -0.109147,-0.17137 -0.321695,-0.26324 -0.498706,-0.16685 z m 22.134223,0.48957 c -3.131375,0.0403 -6.265241,-0.0739 -9.394577,0.0965 -0.468725,0.44223 0.142175,1.28494 0.650485,1.00989 1.384032,0.12681 2.85084,-0.12418 4.182814,0.13611 0.571933,1.13107 0.07625,2.46204 0.248367,3.67866 0,7.68864 0,15.37729 0,23.06593 -1.712492,0.0611 -3.434938,-0.12866 -5.13883,0.13613 -0.414159,0.5994 0.355666,1.2153 0.871649,1.00067 3.414821,-0.051 6.850299,0.0616 10.252208,-0.0756 0.535457,-0.31474 0.07157,-1.37714 -0.489415,-1.07657 -1.47969,0.004 -2.959377,0.0112 -4.439066,0.0153 0,-8.95217 0,-17.90436 0,-26.85655 1.68289,-0.0718 3.436538,0.18254 5.07378,-0.17562 0.377235,-0.63313 -0.348969,-1.18865 -0.880631,-0.97648 -0.312261,0.006 -0.624522,0.0142 -0.936784,0.0215 z m 11.462331,0.50933 c 3.724834,0.0731 7.753565,0.38014 10.838657,2.96301 2.279888,2.02698 2.655067,6.24077 0.590164,8.60686 -2.093633,2.59714 -5.250522,3.62817 -8.21426,4.33897 -1.886167,0.4154 -3.810471,0.58057 -5.729769,0.67097 0,-5.49075 0,-10.98149 0,-16.47223 0.838186,-0.0429 1.676464,-0.0811 2.515208,-0.10759 z m -33.545303,1.45997 c 1.478979,4.74651 2.958375,9.49286 4.437094,14.23948 -3.505543,0.85614 -7.011237,1.7116 -10.516171,2.57083 1.993308,-5.7008 3.991988,-11.39931 5.990375,-17.09792 0.02957,0.0959 0.05913,0.19172 0.0887,0.28761 z"
             transform="matrix(1.0222273,0,0,0.98978004,-20.221268,-32.156878)" /><path
             id="path16-0"
             style="font-size:30.901px;line-height:1.25;font-family:'Comic Neue';-inkscape-font-specification:'Comic Neue, Normal';letter-spacing:0px;word-spacing:0px;stroke-width:0.210081"
             d="m 144.97797,67.915931 c -2.89747,0.0651 -5.80925,-0.06419 -8.69727,0.134765 -1.51361,0.783333 -1.66959,2.708987 -1.60089,4.219139 0.0935,7.744696 -0.14622,15.500101 0.18081,23.237491 0.28019,1.280246 1.65131,2.281407 2.95953,1.914273 2.70969,-0.04298 5.4394,0.126191 8.13438,-0.161918 1.58147,-1.031303 1.67089,-3.234155 1.19531,-4.880859 -0.41218,-1.155539 -1.70831,-1.930922 -2.91833,-1.624525 -1.7643,0.0567 -3.5297,0.02697 -5.29456,0.03077 0,-1.781901 0,-3.563802 0,-5.345703 2.03192,-0.04429 4.08834,0.127226 6.10156,-0.173828 1.58711,-1.085279 1.67724,-3.341246 1.10938,-5.007813 -0.47212,-1.091843 -1.76102,-1.734383 -2.91445,-1.430944 -1.43214,0.01325 -2.8643,0.01747 -4.29649,0.01297 0,-1.420573 0,-2.841146 0,-4.261719 2.33057,-0.03192 4.67767,0.102953 6.99609,-0.136719 1.58149,-0.951047 1.73999,-3.112349 1.29324,-4.728913 -0.29886,-0.958886 -1.14915,-1.935896 -2.24831,-1.796477 z" /><path
             id="path15-0"
             style="font-size:30.901px;line-height:1.25;font-family:'Comic Neue';-inkscape-font-specification:'Comic Neue, Normal';letter-spacing:0px;word-spacing:0px;stroke-width:0.209149"
             d="m 125.11859,67.759681 c -1.5044,0.301802 -2.01027,2.05154 -1.99203,3.392968 0.0464,8.125743 -0.0844,16.257635 0.12733,24.379206 0.18568,1.250846 1.4402,2.475074 2.7642,2.03218 2.26101,-0.402293 4.59673,-0.423894 6.81339,-1.030916 1.58443,-1.361362 1.66913,-3.927796 0.58594,-5.613281 -0.75497,-0.903265 -2.05749,-0.791968 -3.07295,-0.502787 -1.00042,0.128533 -2.00085,0.257066 -3.00127,0.385599 -0.0454,-6.972595 0.12393,-13.955782 -0.14594,-20.921083 -0.22731,-0.985659 -0.88765,-2.226594 -2.07867,-2.121886 z" /><path
             id="path14-3"
             style="font-size:30.901px;line-height:1.25;font-family:'Comic Neue';-inkscape-font-specification:'Comic Neue, Normal';letter-spacing:0px;word-spacing:0px;stroke-width:0.210792"
             d="m 107.98383,67.769446 c -1.49935,0.447467 -1.77636,2.209279 -2.1892,3.491477 -0.90373,2.85831 -1.80746,5.71662 -2.71119,8.57493 -1.24338,-3.802291 -2.25128,-7.690493 -3.767581,-11.396485 -0.823983,-1.191783 -2.920918,-0.620708 -3.127147,0.784188 -0.91379,2.157223 0.200448,4.427892 0.821783,6.497647 1.228553,3.872982 2.441339,7.750902 3.643255,11.632228 -0.5304,2.447382 -1.843893,4.735 -1.892578,7.283203 -0.03165,1.266985 0.673444,2.899955 2.105468,2.994141 1.30192,-0.06868 1.86733,-1.482017 2.16494,-2.558648 2.38676,-7.83651 5.08715,-15.581335 7.31008,-23.465003 0.22177,-1.428356 -0.2621,-3.261148 -1.74327,-3.801853 -0.19652,-0.06884 -0.41074,-0.06504 -0.61456,-0.03582 z" /><path
             id="path13-4"
             style="font-size:30.901px;line-height:1.25;font-family:'Comic Neue';-inkscape-font-specification:'Comic Neue, Normal';letter-spacing:0px;word-spacing:0px;stroke-width:0.209992"
             d="m 153.80414,67.720618 c -2.64154,0.09297 -4.60311,2.450533 -5.25768,4.847333 -0.93192,3.580468 -0.65857,7.812106 1.91127,10.675876 1.42708,1.672934 3.98822,2.149843 5.04758,4.125229 0.57541,1.394599 0.0742,3.466632 -1.53143,3.865831 -1.39348,0.101448 -2.26231,-1.378203 -2.40998,-2.580675 -0.16488,-1.101967 -0.8574,-2.407852 -2.12109,-2.416015 -1.31092,0.08953 -2.0062,1.490311 -2.05868,2.66592 -0.20585,2.301187 0.67884,4.611405 2.03524,6.439549 1.28892,1.693308 3.61165,2.873045 5.7143,2.039948 2.51956,-0.94123 3.92467,-3.556316 4.42722,-6.065802 0.85503,-3.687711 0.20261,-7.973744 -2.55437,-10.722796 -1.36439,-1.312159 -3.39179,-1.857266 -4.48148,-3.456028 -0.63172,-1.122115 -0.18538,-2.968162 1.25371,-3.141026 1.00991,-0.168945 2.05029,0.718026 1.92997,1.760836 0.12415,1.119126 0.82781,2.534903 2.12452,2.505738 1.39977,-0.159064 1.95159,-1.768405 1.98616,-2.987705 0.19673,-2.725838 -0.86975,-5.838311 -3.45081,-7.112854 -0.80173,-0.360137 -1.69202,-0.468949 -2.56445,-0.443359 z" /><path
             id="path12-9"
             style="font-size:30.901px;line-height:1.25;font-family:'Comic Neue';-inkscape-font-specification:'Comic Neue, Normal';letter-spacing:0px;word-spacing:0px;stroke-width:0.210478"
             d="m 116.2182,67.720618 c -2.47937,0.493699 -4.02697,2.789677 -4.98349,4.951228 -2.66484,5.97723 -3.1936,12.941708 -1.27818,19.211444 0.81431,2.47629 2.51769,4.983192 5.16847,5.67454 2.38083,0.509887 4.756,-1.007476 5.92133,-3.026664 1.16581,-1.767066 1.99687,-4.11031 1.07031,-6.158204 -0.40502,-0.91552 -1.61213,-1.738718 -2.55371,-1.065864 -1.35453,0.992466 -1.26326,3.235076 -2.99902,3.810005 -1.32473,0.31348 -2.27594,-1.008379 -2.68587,-2.090223 -0.93952,-2.328911 -0.82438,-4.924355 -0.62628,-7.389363 0.27818,-2.451754 0.9707,-4.967508 2.40785,-6.99893 0.56984,-0.605538 1.86952,-0.477812 1.9341,0.493135 0.17235,0.979144 0.5363,2.145537 1.62449,2.42874 0.98419,0.300025 2.01212,-0.412025 2.22852,-1.386719 0.62209,-1.638095 0.33284,-3.434727 0.33266,-5.141295 -0.12865,-1.127504 -0.9363,-2.444011 -2.2018,-2.403627 -0.67594,0.347961 -1.07875,-0.51242 -1.69209,-0.628505 -0.52312,-0.222836 -1.09999,-0.315966 -1.66729,-0.279698 z" /><path
             id="text9-2"
             style="font-size:30.901px;line-height:1.25;font-family:'Comic Neue';-inkscape-font-specification:'Comic Neue, Normal';letter-spacing:0px;word-spacing:0px;stroke-width:0.210371"
             d="m 89.544375,67.720618 c -2.513672,0.51999 -4.059073,2.867634 -5.021137,5.064858 -2.626808,6.009152 -3.147844,12.992683 -1.16351,19.265367 0.829246,2.427962 2.540047,4.880222 5.16302,5.51624 2.444298,0.491433 4.841714,-1.141343 5.976651,-3.232217 1.145152,-1.781368 1.899044,-4.183466 0.834038,-6.176747 -0.468292,-0.859765 -1.726161,-1.524369 -2.558543,-0.755191 -1.229745,1.037714 -1.19423,3.19102 -2.902,3.712024 -1.341665,0.29163 -2.283174,-1.05984 -2.682035,-2.158005 -0.962265,-2.479554 -0.8008,-5.218152 -0.533291,-7.821442 0.340307,-2.33602 0.984679,-4.710554 2.461026,-6.606293 0.636964,-0.54415 1.883835,-0.198799 1.845387,0.739124 0.112347,1.143328 0.921537,2.495584 2.228942,2.362772 1.280319,-0.146918 1.729923,-1.572174 1.90028,-2.66049 0.152207,-1.428416 0.07587,-2.883753 -0.05859,-4.306641 -0.204609,-0.985304 -1.013811,-2.168567 -2.144874,-1.989565 -0.710711,0.211833 -1.135082,-0.592914 -1.78677,-0.721372 -0.49677,-0.185224 -1.028297,-0.272792 -1.558594,-0.232422 z" /><path
             style="font-size:42.6667px;line-height:1.25;font-family:'Comic Neue';-inkscape-font-specification:'Comic Neue, Normal';letter-spacing:0px;word-spacing:0px;white-space:pre;stroke-width:0.26297"
             d="m 23.193772,112.41629 c 1.301528,0 2.277674,-0.70686 2.311335,-2.28889 l 0.12342,-5.12757 c 0,-0.21319 -0.168301,-0.35905 -0.359042,-0.35905 -0.269282,0 -0.347822,0.20197 -0.347822,0.46003 -0.291722,-0.15708 -0.695645,-0.33661 -1.200548,-0.33661 -1.514709,0 -2.659156,1.41373 -2.659156,2.92844 0,1.53715 0.964926,2.67038 2.232794,2.67038 0.605884,-0.0112 1.144447,-0.30294 1.525929,-0.81907 l -0.02244,0.56101 c -0.04488,0.97614 -0.460023,1.61569 -1.61569,1.61569 -0.807845,0 -1.054687,-0.15708 -1.279088,-0.15708 -0.190741,0 -0.359042,0.14586 -0.359042,0.34782 0,0.1683 0.12342,0.30294 0.280501,0.3366 0.347822,0.0785 0.841506,0.1683 1.368849,0.1683 z m 0.01122,-2.72648 c -1.054687,0 -1.50349,-1.14444 -1.50349,-1.97473 0,-1.29031 0.931266,-2.25523 2.064493,-2.25523 0.415143,0 0.863946,0.14586 1.099567,0.3366 v 1.58203 c 0,1.76155 -0.886385,2.31133 -1.66057,2.31133 z m 4.600237,-5.80077 c 0.179521,0 0.347822,-0.13464 0.347822,-0.3366 l 0.01122,-0.46003 c 0,-0.1683 -0.157081,-0.34782 -0.336602,-0.34782 -0.179522,0 -0.359043,0.15708 -0.359043,0.3366 l -0.01122,0.46003 c 0,0.19074 0.157081,0.34782 0.347823,0.34782 z m -0.06732,6.4852 c 0.190741,0 0.359042,-0.1683 0.359042,-0.35904 l 0.06732,-4.86951 c 0,-0.20196 -0.157081,-0.37026 -0.359042,-0.37026 -0.190742,0 -0.370263,0.1683 -0.370263,0.37026 l -0.06732,4.86951 c 0,0.19074 0.168301,0.35904 0.370262,0.35904 z m 2.81623,0.0112 c 0.179521,0 0.347822,-0.15708 0.347822,-0.33661 v -4.57778 h 1.256648 c 0.201961,0 0.359042,-0.1683 0.359042,-0.35904 0,-0.20197 -0.157081,-0.34783 -0.359042,-0.34783 h -1.256648 v -1.53715 c 0,-0.19074 -0.134641,-0.35904 -0.347822,-0.35904 -0.201961,0 -0.359042,0.1683 -0.359042,0.35904 v 1.53715 h -1.222988 c -0.190741,0 -0.370262,0.13464 -0.370262,0.34783 0,0.19074 0.157081,0.35904 0.347822,0.35904 h 1.245428 v 4.57778 c 0,0.17952 0.168301,0.3366 0.359042,0.3366 z m 2.92843,0 c 0.190741,0 0.347822,-0.13464 0.347822,-0.37027 v -1.81765 c 0,-0.37026 0.03366,-0.69564 0.168301,-0.96492 0.168301,-0.35904 1.021027,-1.79521 1.941072,-1.79521 0.381483,0 0.863946,0.34782 0.863946,3.1865 0,0.68442 -0.02244,1.22298 -0.02244,1.41373 0,0.17952 0.168301,0.3366 0.347822,0.3366 0.190741,0 0.325382,-0.14586 0.336602,-0.3366 0.03366,-0.38149 0.03366,-0.75175 0.03366,-1.49227 0,-2.53574 -0.370262,-3.80361 -1.503489,-3.80361 -0.886386,0 -1.750331,0.87517 -2.165474,1.72789 v -3.44456 c 0,-0.19074 -0.134641,-0.35904 -0.347822,-0.35904 -0.201961,0 -0.359042,0.1683 -0.359042,0.35904 v 7.01255 c 0,0.17952 0.168301,0.34782 0.359042,0.34782 z m 7.180838,0.0224 c 0.830285,0 1.54837,-0.47124 1.840091,-0.85273 v 0.42637 c 0,0.2244 0.157082,0.3927 0.392703,0.3927 0.190741,0 0.370262,-0.1683 0.370262,-0.34782 v -4.94805 c 0,-0.19075 -0.157081,-0.31417 -0.336602,-0.31417 -0.168301,0 -0.336602,0.12342 -0.336602,0.31417 l -0.04488,3.42212 c 0,0.13464 0,0.34782 -0.134641,0.5049 -0.224401,0.25806 -0.987366,0.77418 -1.739111,0.77418 -0.740524,0 -1.021026,-0.65076 -1.021026,-2.21035 0,-1.63813 0.134641,-2.08693 0.134641,-2.46841 0,-0.21319 -0.145861,-0.33661 -0.325382,-0.33661 -0.213182,0 -0.314162,0.12342 -0.359043,0.41515 -0.08976,0.52734 -0.145861,1.33518 -0.13464,2.38987 0.02244,2.18792 0.527343,2.83868 1.69423,2.83868 z m 4.555344,-0.0337 c 0.190741,0 0.336602,-0.15708 0.336602,-0.30294 v -0.0898 c 0.336602,0.14586 0.931266,0.31416 1.481049,0.31416 1.69423,0 2.445975,-1.26787 2.445975,-2.9621 0,-1.52593 -0.796626,-2.46841 -1.963512,-2.46841 -0.751744,0 -1.469829,0.31416 -1.952292,0.86394 v -2.74892 c 0,-0.19074 -0.168301,-0.31416 -0.336602,-0.31416 -0.190741,0 -0.359042,0.12342 -0.359042,0.31416 v 7.06865 c 0,0.17952 0.168301,0.32538 0.347822,0.32538 z m 1.727891,-0.75175 c -0.594664,0 -1.178108,-0.19074 -1.380069,-0.2805 v -2.25523 c 0,-0.84151 0.852725,-1.51471 1.941071,-1.51471 0.774184,0 1.301529,0.62832 1.301529,1.76155 0,1.38007 -0.493684,2.28889 -1.862531,2.28889 z m 3.556764,0.75175 c 0.246842,0 0.482463,-0.24684 0.482463,-0.56101 0,-0.24684 -0.179521,-0.43758 -0.403922,-0.43758 -0.246842,0 -0.482463,0.25807 -0.482463,0.53857 0,0.25806 0.168301,0.46002 0.403922,0.46002 z m 3.893363,0 c 0.942485,0 1.705451,-0.51612 2.053271,-1.03225 0.06732,-0.0898 0.112202,-0.1683 0.112202,-0.25806 0,-0.17952 -0.15708,-0.3366 -0.347823,-0.3366 -0.134641,0 -0.235621,0.0898 -0.31416,0.20196 -0.314162,0.4488 -0.774187,0.77418 -1.50349,0.77418 -0.796626,0 -1.76155,-0.62832 -1.76155,-1.80643 0,-1.25664 0.920045,-2.49085 1.840089,-2.49085 0.561005,0 0.863946,0.24684 1.155667,0.59466 0.06732,0.0785 0.145862,0.12342 0.258063,0.12342 0.19074,0 0.336602,-0.15708 0.336602,-0.34782 0,-0.0785 -0.03366,-0.17952 -0.08976,-0.23562 -0.426364,-0.49368 -0.852725,-0.7854 -1.683011,-0.7854 -1.301529,0 -2.502075,1.61568 -2.502075,3.16406 0,1.38006 1.122007,2.43475 2.445975,2.43475 z m 5.239779,0 c 1.413727,0 2.614276,-1.38007 2.614276,-3.02942 0,-1.43617 -0.987366,-2.56939 -2.266456,-2.56939 -1.514709,0 -2.625495,1.50348 -2.625495,3.01819 0,1.44739 0.987367,2.58062 2.277675,2.58062 z m 0.04488,-0.63954 c -0.830284,0 -1.593249,-0.76297 -1.593249,-1.96352 0,-1.22299 0.830286,-2.35621 1.840091,-2.35621 0.908825,0 1.604471,0.93126 1.604471,1.98595 0,1.24543 -0.875165,2.33378 -1.851313,2.33378 z m 4.330938,0.63954 c 0.190743,0 0.347823,-0.15708 0.347823,-0.3366 v -1.67179 c 0,-0.87517 0.10098,-1.25665 0.504902,-1.82887 0.392704,-0.54979 0.976148,-1.09957 1.52593,-1.09957 0.605883,0 0.863946,0.3927 0.863946,1.33519 v 3.26504 c 0,0.17952 0.168301,0.3366 0.359041,0.3366 0.201962,0 0.347823,-0.15708 0.347823,-0.3366 v -2.53574 c 0,-1.29031 1.122007,-2.06449 1.739112,-2.06449 0.572223,0 0.886385,0.38148 0.886385,1.33519 v 3.26504 c 0,0.17952 0.15708,0.3366 0.347823,0.3366 0.19074,0 0.359041,-0.15708 0.359041,-0.3366 v -3.1865 c 0,-1.50349 -0.650764,-2.07571 -1.50349,-2.07571 -0.605883,0 -1.335186,0.3366 -1.907412,1.26786 -0.21318,-1.0098 -0.852723,-1.26786 -1.402507,-1.26786 -0.762966,0 -1.62691,0.66198 -2.120594,1.63812 v -1.2903 c 0,-0.17952 -0.145862,-0.34782 -0.347823,-0.34782 -0.19074,0 -0.359041,0.1683 -0.359041,0.34782 v 4.91439 c 0,0.17952 0.168301,0.3366 0.359041,0.3366 z m 8.706775,1.30153 c 0.12342,0 0.235621,-0.0561 0.269281,-0.15708 l 3.511881,-8.33652 c 0.03366,-0.0673 0.10098,-0.17952 0.10098,-0.2805 0,-0.13464 -0.145859,-0.29172 -0.31416,-0.29172 -0.112201,0 -0.235621,0.0449 -0.291723,0.15708 l -3.556761,8.42627 c -0.02243,0.0561 -0.03366,0.1122 -0.03366,0.17952 0,0.15709 0.12342,0.30295 0.314163,0.30295 z m 6.070062,-1.30153 c 0.942485,0 1.705451,-0.51612 2.053271,-1.03225 0.06732,-0.0898 0.112202,-0.1683 0.112202,-0.25806 0,-0.17952 -0.15708,-0.3366 -0.347823,-0.3366 -0.134641,0 -0.235621,0.0898 -0.31416,0.20196 -0.314162,0.4488 -0.774187,0.77418 -1.50349,0.77418 -0.796626,0 -1.76155,-0.62832 -1.76155,-1.80643 0,-1.25664 0.920046,-2.49085 1.840091,-2.49085 0.561003,0 0.863944,0.24684 1.155668,0.59466 0.06732,0.0785 0.145859,0.12342 0.25806,0.12342 0.19074,0 0.336602,-0.15708 0.336602,-0.34782 0,-0.0785 -0.03366,-0.17952 -0.08976,-0.23562 -0.426365,-0.49368 -0.852726,-0.7854 -1.683012,-0.7854 -1.301529,0 -2.502075,1.61568 -2.502075,3.16406 0,1.38006 1.122007,2.43475 2.445975,2.43475 z m 5.093912,0 c 0.908827,0 2.322555,-0.6171 2.322555,-2.31134 0,-0.88638 -0.426361,-1.64935 -1.234208,-2.01961 0.628325,-0.35904 1.065907,-0.9537 1.065907,-1.64935 0,-0.96493 -0.953706,-1.71667 -2.165473,-1.71667 -0.650764,0 -1.200548,0.2244 -1.525929,0.42636 -0.314162,0.20197 -0.381483,0.34783 -0.381483,0.47125 0,0.15708 0.112202,0.34782 0.347823,0.34782 0.08976,0 0.145859,-0.0337 0.24684,-0.1122 0.168301,-0.12342 0.549783,-0.42636 1.312749,-0.42636 0.942486,0 1.458609,0.52734 1.458609,1.0098 0,0.71809 -0.875164,1.32397 -1.649351,1.32397 -0.201961,0 -0.347821,0.14586 -0.347821,0.34782 0,0.19074 0.14586,0.34782 0.336602,0.34782 0.516124,0 1.840092,0.29173 1.840092,1.64935 0,1.09957 -0.886386,1.60448 -1.649351,1.60448 -0.953707,0 -1.424949,-0.62833 -1.570811,-0.88639 -0.0561,-0.12342 -0.15708,-0.19074 -0.31416,-0.19074 -0.190743,0 -0.336604,0.13464 -0.336604,0.32538 0,0.0449 0,0.13464 0.0561,0.2244 0.06732,0.14586 0.706864,1.23421 2.187912,1.23421 z m 4.342174,-6.4852 c 0.179522,0 0.347823,-0.13464 0.347823,-0.3366 l 0.01123,-0.46003 c 0,-0.1683 -0.15708,-0.34782 -0.336602,-0.34782 -0.179522,0 -0.359041,0.15708 -0.359041,0.3366 l -0.01123,0.46003 c 0,0.19074 0.15708,0.34782 0.347823,0.34782 z m -0.06732,6.4852 c 0.19074,0 0.359041,-0.1683 0.359041,-0.35904 l 0.06732,-4.86951 c 0,-0.20196 -0.15708,-0.37026 -0.359041,-0.37026 -0.190743,0 -0.370262,0.1683 -0.370262,0.37026 l -0.06732,4.86951 c 0,0.19074 0.168301,0.35904 0.370262,0.35904 z m 2.535724,0 c 0.201961,0 0.336602,-0.1683 0.336602,-0.37026 l 0.01123,-0.99859 c 0.01123,-0.81907 0.201961,-1.57081 0.706864,-2.49086 0.381483,-0.69564 0.908827,-1.07712 1.402509,-1.07712 0.751745,0 1.054687,0.40392 1.054687,2.51329 0,1.11079 0.01123,1.57081 0.01123,2.07572 0,0.17952 0.15708,0.34782 0.336602,0.34782 0.201961,0 0.336601,-0.1683 0.336601,-0.35904 0,-0.51613 0.01123,-0.96493 0.01123,-2.10938 0,-2.24401 -0.426364,-3.13039 -1.649351,-3.13039 -0.976146,0 -1.772772,0.75174 -2.210354,2.09815 v -1.77277 c 0,-0.19074 -0.15708,-0.33661 -0.347823,-0.33661 -0.19074,0 -0.359041,0.14587 -0.359041,0.33661 v 4.94805 c 0,0.1683 0.168301,0.32538 0.359041,0.32538 z m 6.294455,0 c 0.179522,0 0.347823,-0.15708 0.347823,-0.32538 v -4.63389 h 1.481048 c 0.179522,0 0.325383,-0.15708 0.325383,-0.3366 0,-0.1683 -0.179521,-0.31417 -0.325383,-0.31417 l -1.481048,-0.0112 c 0.01123,-1.25664 0.415143,-1.42494 1.69423,-1.42494 0.213182,0 0.336602,-0.16831 0.336602,-0.34783 0,-0.25806 -0.201961,-0.32538 -0.471243,-0.32538 -1.57081,0 -2.244014,0.51613 -2.255232,2.09815 H 95.82126 c -0.145861,0 -0.302941,0.15709 -0.302941,0.32539 0,0.17952 0.15708,0.3366 0.325381,0.3366 h 0.785405 v 4.63389 c 0,0.16831 0.168301,0.32539 0.359041,0.32539 z m 4.117762,0.0224 c 1.18932,0 1.92985,-0.8415 1.92985,-1.66057 0,-0.85273 -0.4488,-1.17811 -1.72789,-1.60447 -0.88639,-0.29172 -1.27909,-0.5049 -1.27909,-0.98737 0,-0.47124 0.4488,-0.75174 1.26787,-0.75174 0.76296,0 1.08835,0.25806 1.08835,0.65076 0,0.10098 -0.0337,0.15708 -0.0337,0.24684 0,0.16831 0.14586,0.31417 0.34782,0.31417 0.21318,0 0.34782,-0.17952 0.34782,-0.54979 0,-0.77418 -0.6171,-1.27908 -1.75033,-1.27908 -1.27909,0 -1.92985,0.57222 -1.92985,1.35762 0,0.81907 0.527342,1.25665 1.71667,1.62691 1.06591,0.31417 1.29031,0.56101 1.29031,1.00981 0,0.52734 -0.50491,0.98737 -1.23421,0.98737 -0.72931,0 -1.222989,-0.34783 -1.436168,-0.94249 -0.04488,-0.15708 -0.157083,-0.23562 -0.314163,-0.23562 -0.19074,0 -0.336601,0.14586 -0.336601,0.3366 0,0.43758 0.661982,1.48105 2.053272,1.48105 z m 5.28465,-0.0224 c 0.94248,0 1.70545,-0.51612 2.05327,-1.03225 0.0673,-0.0898 0.1122,-0.1683 0.1122,-0.25806 0,-0.17952 -0.15708,-0.3366 -0.34782,-0.3366 -0.13464,0 -0.23562,0.0898 -0.31416,0.20196 -0.31416,0.4488 -0.77419,0.77418 -1.50349,0.77418 -0.79663,0 -1.76155,-0.62832 -1.76155,-1.80643 0,-1.25664 0.92004,-2.49085 1.84009,-2.49085 0.561,0 0.86394,0.24684 1.15567,0.59466 0.0673,0.0785 0.14586,0.12342 0.25806,0.12342 0.19074,0 0.3366,-0.15708 0.3366,-0.34782 0,-0.0785 -0.0337,-0.17952 -0.0898,-0.23562 -0.42636,-0.49368 -0.85273,-0.7854 -1.68301,-0.7854 -1.30153,0 -2.50208,1.61568 -2.50208,3.16406 0,1.38006 1.12201,2.43475 2.44598,2.43475 z m 3.68019,0.0112 c 0.19074,0 0.34782,-0.13464 0.34782,-0.37027 v -1.81765 c 0,-0.37026 0.0337,-0.69564 0.1683,-0.96492 0.1683,-0.35904 1.02103,-1.79521 1.94107,-1.79521 0.38148,0 0.86395,0.34782 0.86395,3.1865 0,0.68442 -0.0224,1.22298 -0.0224,1.41373 0,0.17952 0.1683,0.3366 0.34782,0.3366 0.19074,0 0.32538,-0.14586 0.3366,-0.3366 0.0337,-0.38149 0.0337,-0.75175 0.0337,-1.49227 0,-2.53574 -0.37026,-3.80361 -1.50349,-3.80361 -0.88638,0 -1.75033,0.87517 -2.16547,1.72789 v -3.44456 c 0,-0.19074 -0.13465,-0.35904 -0.34782,-0.35904 -0.20197,0 -0.35905,0.1683 -0.35905,0.35904 v 7.01255 c 0,0.17952 0.1683,0.34782 0.35905,0.34782 z m 5.44172,1.29031 c 0.12342,0 0.23563,-0.0561 0.26929,-0.15709 l 3.51188,-8.33651 c 0.0337,-0.0673 0.10098,-0.17952 0.10098,-0.2805 0,-0.13464 -0.14586,-0.29172 -0.31416,-0.29172 -0.11221,0 -0.23562,0.0449 -0.29172,0.15708 l -3.55677,8.42627 c -0.0224,0.0561 -0.0337,0.1122 -0.0337,0.17952 0,0.15709 0.12342,0.30295 0.31416,0.30295 z m 7.67454,-1.21177 c 0.20196,0 0.34782,-0.1683 0.34782,-0.37026 v -4.85829 c -0.19074,-0.0898 -0.88639,-0.46003 -1.70545,-0.46003 -1.73911,0 -2.69282,1.70545 -2.69282,3.17528 0,1.44739 0.90883,2.42354 2.1206,2.42354 0.59466,0 1.18932,-0.25806 1.58202,-0.59467 v 0.31417 c 0,0.20196 0.11221,0.37026 0.34783,0.37026 z m -1.92985,-0.75175 c -0.81907,0 -1.40251,-0.68442 -1.40251,-1.78399 0,-1.43617 0.87516,-2.49085 1.99717,-2.49085 0.35904,0 0.79662,0.13464 0.99859,0.2244 l -0.0449,3.39968 c -0.25806,0.25806 -0.8976,0.65076 -1.54836,0.65076 z m 4.46559,-5.82321 c 0.17952,0 0.34783,-0.13464 0.34783,-0.3366 l 0.0112,-0.46003 c 0,-0.1683 -0.15708,-0.34782 -0.3366,-0.34782 -0.17952,0 -0.35904,0.15708 -0.35904,0.3366 l -0.0112,0.46003 c 0,0.19074 0.15708,0.34782 0.34783,0.34782 z m -0.0673,6.4852 c 0.19074,0 0.35904,-0.1683 0.35904,-0.35905 l 0.0673,-4.8695 c 0,-0.20197 -0.15708,-0.37027 -0.35904,-0.37027 -0.19074,0 -0.37026,0.1683 -0.37026,0.37027 l -0.0673,4.8695 c 0,0.19075 0.1683,0.35905 0.37026,0.35905 z m 2.53573,0 c 0.17952,0 0.34782,-0.15708 0.34782,-0.32539 l 0.0112,-2.47963 c 0,-0.38148 0.14586,-0.88639 0.38148,-1.18933 0.38148,-0.5049 0.86394,-0.94248 1.36885,-0.94248 0.30294,0 0.38148,0.14586 0.38148,0.32538 v 0.25806 c 0,0.1683 0.0785,0.34782 0.32538,0.34782 0.20197,0 0.34782,-0.14586 0.34782,-0.3366 v -0.35904 c 0,-0.42636 -0.20196,-0.93127 -0.93126,-0.93127 -0.93127,0 -1.53715,0.72931 -1.87375,1.32397 v -0.95371 c 0,-0.19074 -0.15708,-0.3366 -0.35904,-0.3366 -0.19075,0 -0.35905,0.14586 -0.35905,0.3366 v 4.93683 c 0,0.1683 0.17953,0.32538 0.35905,0.32538 z m 5.84564,0 c 0.94249,0 1.70545,-0.51613 2.05327,-1.03225 0.0673,-0.0898 0.11221,-0.1683 0.11221,-0.25806 0,-0.17952 -0.15708,-0.3366 -0.34783,-0.3366 -0.13464,0 -0.23562,0.0898 -0.31416,0.20196 -0.31416,0.4488 -0.77418,0.77418 -1.50349,0.77418 -0.79662,0 -1.76155,-0.62832 -1.76155,-1.80643 0,-1.25665 0.92005,-2.49085 1.84009,-2.49085 0.56101,0 0.86395,0.24684 1.15567,0.59466 0.0673,0.0785 0.14586,0.12342 0.25806,0.12342 0.19074,0 0.3366,-0.15708 0.3366,-0.34782 0,-0.0785 -0.0337,-0.17952 -0.0898,-0.23562 -0.42636,-0.49369 -0.85272,-0.78541 -1.68301,-0.78541 -1.30153,0 -2.50207,1.61569 -2.50207,3.16406 0,1.38007 1.122,2.43476 2.44597,2.43476 z m 3.84849,2.17669 c 0.15708,0 0.26928,-0.10098 0.3366,-0.2244 l 3.2426,-7.06865 c 0.0337,-0.0561 0.0337,-0.0898 0.0337,-0.15708 0,-0.20196 -0.15708,-0.34782 -0.34782,-0.34782 -0.1683,0 -0.2805,0.1122 -0.3366,0.22441 l -1.76155,3.84848 -1.90741,-3.82605 c -0.0561,-0.12342 -0.17952,-0.23562 -0.33661,-0.23562 -0.20196,0 -0.35904,0.15708 -0.35904,0.35904 0,0.0673 0.0224,0.13464 0.0449,0.19075 l 2.1767,4.34216 -1.08835,2.37866 c -0.0337,0.0561 -0.0449,0.1122 -0.0449,0.15708 0,0.20196 0.15708,0.35904 0.34782,0.35904 z m 6.40667,-2.17669 c 0.94249,0 1.70546,-0.51613 2.05328,-1.03225 0.0673,-0.0898 0.1122,-0.1683 0.1122,-0.25806 0,-0.17952 -0.15708,-0.3366 -0.34782,-0.3366 -0.13464,0 -0.23562,0.0898 -0.31417,0.20196 -0.31416,0.4488 -0.77418,0.77418 -1.50349,0.77418 -0.79662,0 -1.76155,-0.62832 -1.76155,-1.80643 0,-1.25665 0.92005,-2.49085 1.8401,-2.49085 0.561,0 0.86394,0.24684 1.15566,0.59466 0.0673,0.0785 0.14586,0.12342 0.25806,0.12342 0.19075,0 0.33661,-0.15708 0.33661,-0.34782 0,-0.0785 -0.0337,-0.17952 -0.0898,-0.23562 -0.42637,-0.49369 -0.85273,-0.78541 -1.68301,-0.78541 -1.30153,0 -2.50208,1.61569 -2.50208,3.16406 0,1.38007 1.12201,2.43476 2.44597,2.43476 z m 3.68019,0 c 0.1683,0 0.34782,-0.14586 0.34782,-0.31416 v -7.05743 c 0,-0.19074 -0.1683,-0.3366 -0.34782,-0.3366 -0.20197,0 -0.35905,0.14586 -0.35905,0.3366 v 7.05743 c 0,0.1683 0.17952,0.31416 0.35905,0.31416 z m 4.53291,0 c 0.68442,0 1.45861,-0.35905 1.85131,-0.80785 0.0449,-0.0561 0.0898,-0.14586 0.0898,-0.2244 0,-0.19074 -0.14586,-0.3366 -0.3366,-0.3366 -0.0898,0 -0.17952,0.0449 -0.2244,0.1122 -0.30294,0.32538 -0.89761,0.60588 -1.39129,0.60588 -0.86395,0 -1.51471,-0.37026 -1.89619,-1.08834 l 3.47822,-1.98596 c 0.19074,-0.1122 0.26928,-0.23562 0.26928,-0.35904 0,-0.49368 -0.66198,-1.51471 -2.10937,-1.51471 -1.52593,0 -2.52452,1.38007 -2.52452,2.906 0,1.44739 1.09957,2.69282 2.7938,2.69282 z m -2.12059,-2.36744 c -0.0224,-0.13464 -0.0224,-0.23562 -0.0224,-0.35904 0.0224,-1.22299 0.78541,-2.21035 1.88498,-2.21035 0.77418,0 1.20055,0.26928 1.40251,0.76296 z m 6.74325,2.38988 c 1.18932,0 1.92985,-0.84151 1.92985,-1.66057 0,-0.85273 -0.4488,-1.17811 -1.72789,-1.60447 -0.88639,-0.29172 -1.27909,-0.50491 -1.27909,-0.98737 0,-0.47124 0.4488,-0.75174 1.26787,-0.75174 0.76296,0 1.08835,0.25806 1.08835,0.65076 0,0.10098 -0.0337,0.15708 -0.0337,0.24684 0,0.1683 0.14586,0.31416 0.34782,0.31416 0.21318,0 0.34782,-0.17952 0.34782,-0.54978 0,-0.77418 -0.61711,-1.27909 -1.75033,-1.27909 -1.27909,0 -1.92985,0.57223 -1.92985,1.35763 0,0.81907 0.52734,1.25665 1.71667,1.62691 1.0659,0.31416 1.2903,0.561 1.2903,1.00981 0,0.52734 -0.5049,0.98736 -1.2342,0.98736 -0.72931,0 -1.22299,-0.34782 -1.43617,-0.94248 -0.0449,-0.15708 -0.15708,-0.23562 -0.31416,-0.23562 -0.19074,0 -0.33661,0.14586 -0.33661,0.3366 0,0.43758 0.66199,1.48105 2.05328,1.48105 z"
             id="text1-7"
             aria-label="github.com/c3infsch/aircycles" /></g></g></g><path
       style="fill:none;stroke:#000000;stroke-width:0.264583px;stroke-linecap:butt;stroke-linejoin:miter;stroke-dasharray:0.264583, 1.5875;stroke-dashoffset:0;stroke-opacity:1"
       d="M 0,63.632291 H 178"
       id="path3" /></g></svg>
