<?xml version="1.0" encoding="UTF-8" standalone="no"?>
<!-- Created with Inkscape (http://www.inkscape.org/) -->

<svg
   width="140mm"
   height="45mm"
   viewBox="0 0 140 45"
   version="1.1"
   id="svg1"
   xml:space="preserve"
   inkscape:version="1.4.2 (ebf0e940d0, 2025-05-08)"
   sodipodi:docname="aircycles-logo-comic-neue.svg"
   inkscape:export-filename="aircycles-logo-comic-neue-plain.svg"
   inkscape:export-xdpi="1200"
   inkscape:export-ydpi="1200"
   xmlns:inkscape="http://www.inkscape.org/namespaces/inkscape"
   xmlns:sodipodi="http://sodipodi.sourceforge.net/DTD/sodipodi-0.dtd"
   xmlns="http://www.w3.org/2000/svg"
   xmlns:svg="http://www.w3.org/2000/svg"><sodipodi:namedview
     id="namedview1"
     pagecolor="#ffffff"
     bordercolor="#666666"
     borderopacity="1.0"
     inkscape:showpageshadow="2"
     inkscape:pageopacity="0.0"
     inkscape:pagecheckerboard="0"
     inkscape:deskcolor="#d1d1d1"
     inkscape:document-units="mm"
     inkscape:zoom="1.7714407"
     inkscape:cx="292.6996"
     inkscape:cy="162.29727"
     inkscape:window-width="1920"
     inkscape:window-height="1182"
     inkscape:window-x="0"
     inkscape:window-y="18"
     inkscape:window-maximized="1"
     inkscape:current-layer="layer1"
     showgrid="false" /><defs
     id="defs1"><rect
       x="0"
       y="143.63818"
       width="575.73004"
       height="75.351173"
       id="rect2" /><inkscape:path-effect
       effect="envelope"
       id="path-effect27"
       is_visible="true"
       lpeversion="1"
       yy="true"
       xx="true"
       bendpath1="M 39.44675,101 H 98.510506"
       bendpath2="m 98.510506,101 v 30"
       bendpath3="M 39.44675,131 H 98.510506"
       bendpath4="m 39.44675,101 v 30" /><rect
       x="91.184647"
       y="547.89398"
       width="160.69006"
       height="137.65791"
       id="rect20" /><rect
       x="127.34408"
       y="533.74463"
       width="585.95636"
       height="126.558"
       id="rect19" /><rect
       x="38.080082"
       y="413.47522"
       width="118.47504"
       height="43.360374"
       id="rect18" /><rect
       x="36.384766"
       y="279.05646"
       width="99.606133"
       height="51.88092"
       id="rect17" /><rect
       x="35.373356"
       y="161.93137"
       width="79.393532"
       height="44.806248"
       id="rect16" /><rect
       x="133.63287"
       y="385.91577"
       width="619.14404"
       height="134.26155"
       id="rect1" /><rect
       x="133.63287"
       y="385.91577"
       width="619.14404"
       height="134.26155"
       id="rect1-5" /><rect
       x="133.63287"
       y="385.91577"
       width="619.14404"
       height="134.26155"
       id="rect1-5-6" /><rect
       x="133.63287"
       y="385.91577"
       width="619.14404"
       height="134.26155"
       id="rect1-5-65" /><rect
       x="91.184647"
       y="547.89398"
       width="652.77271"
       height="180.01108"
       id="rect20-7" /><rect
       x="38.080082"
       y="413.47522"
       width="118.47504"
       height="43.360374"
       id="rect18-1" /></defs><g
     inkscape:label="Layer 1"
     inkscape:groupmode="layer"
     id="layer1"><path
       id="text1-4-7"
       style="font-size:18.6667px;line-height:1.25;font-family:Lato;-inkscape-font-specification:Lato;letter-spacing:0px;word-spacing:0px;white-space:pre;shape-inside:url(#rect1-5-6);stroke-width:0.395884"
       d="m 81.324149,100.90316 c -0.599353,-0.029 -1.330076,0.40473 -1.181218,1.1842 -0.0144,9.4524 -0.07032,18.90544 0.03991,28.35735 0.398126,0.54572 1.217688,-0.14022 0.940247,-0.73547 0.0072,-6.16547 0.0046,-3.79294 0.01182,-9.95842 2.674249,-0.33475 5.628184,-1.0655 8.102655,0.53606 3.484352,2.05304 5.878402,5.70701 7.910379,9.35386 0.18174,0.498 0.784239,1.40363 1.246496,0.72932 0.312826,-0.73109 -0.41971,-1.29595 -0.629234,-1.93523 -2.144548,-4.00254 -5.189087,-7.355 -8.767315,-9.76855 2.949889,-1.15293 6.143402,-2.65022 7.761634,-5.8389 1.709568,-3.45023 0.121352,-8.2989 -3.127001,-9.77132 -3.752071,-2.26747 -8.145923,-2.16551 -12.308382,-2.1529 0,0 9e-6,0 9e-6,0 z m -31.270578,0.11196 c -0.840638,0.43083 -0.756306,1.66578 -1.189958,2.44835 -0.803867,2.25792 -5.244297,14.79562 -6.048164,17.05354 -0.935198,0.39111 -2.149535,0.24857 -2.87199,1.06478 -0.02063,0.82501 0.958056,0.80846 1.424629,0.47002 0.267767,-0.2166 1.086088,-0.35994 0.791134,0.22432 -0.871316,2.72724 -1.932714,5.37624 -2.751919,8.12466 0.162546,0.68946 1.21533,0.43582 1.145248,-0.26565 1.019191,-2.84442 2.02518,-5.69463 3.021797,-8.54895 4.238504,-1.04509 7.097673,-1.74967 11.336176,-2.79477 1.2562,4.01274 2.396525,8.07154 3.790552,12.03088 0.566874,0.35635 1.165697,-0.61737 0.711592,-1.10868 -2.928791,-9.52001 -5.82519,-19.05279 -8.860391,-28.53165 -0.109147,-0.17137 -0.321695,-0.26324 -0.498706,-0.16685 z m 22.134223,0.48957 c -3.131375,0.0403 -6.265241,-0.0739 -9.394577,0.0965 -0.468725,0.44223 0.142175,1.28494 0.650485,1.00989 1.384032,0.12681 2.85084,-0.12418 4.182814,0.13611 0.571933,1.13107 0.07625,2.46204 0.248367,3.67866 0,7.68864 0,15.37729 0,23.06593 -1.712492,0.0611 -3.434938,-0.12866 -5.13883,0.13613 -0.414159,0.5994 0.355666,1.2153 0.871649,1.00067 3.414821,-0.051 6.850299,0.0616 10.252208,-0.0756 0.535457,-0.31474 0.07157,-1.37714 -0.489415,-1.07657 -1.434159,0.004 -3.004906,0.0114 -4.439066,0.0153 0,-8.95217 0,-17.90436 0,-26.85655 1.68289,-0.0718 3.436538,0.18254 5.07378,-0.17562 0.377235,-0.63313 -0.348969,-1.18865 -0.880631,-0.97648 -0.312261,0.006 -0.624522,0.0142 -0.936784,0.0215 z m 11.462331,0.50933 c 3.724834,0.0731 7.753565,0.38014 10.838657,2.96301 2.279888,2.02698 2.655067,6.24077 0.590164,8.60686 -2.093633,2.59714 -5.250522,3.62817 -8.21426,4.33897 -1.886167,0.4154 -3.810471,0.58057 -5.729769,0.67097 0,0 0,-16.47224 0,-16.47223 0.838186,-0.0429 1.676464,-0.0811 2.515208,-0.10759 0,0 0,0 0,1e-5 z m -33.545303,1.45997 c 2.840268,9.11531 1.596826,5.12416 4.437094,14.23948 9.074721,-2.21627 -19.590892,4.7871 -10.516171,2.57083 0.712352,-2.0373 5.278023,-15.06062 5.990375,-17.09792 0.02395,0.0777 0.06475,0.20995 0.0887,0.28761 1e-6,0 2e-6,0 2e-6,0 z"
       inkscape:path-effect="#path-effect27"
       inkscape:original-d="m 81.363596,101.00416 c -0.599353,-0.029 -1.330076,0.40473 -1.181218,1.1842 -0.0144,9.4524 -0.07032,18.90544 0.03991,28.35735 0.398126,0.54572 1.217688,-0.14022 0.940247,-0.73547 0.0039,-3.31946 0.0081,-6.63895 0.01182,-9.95842 2.674249,-0.33475 5.628184,-1.0655 8.102655,0.53606 3.484352,2.05304 5.878402,5.70701 7.910379,9.35386 0.18174,0.498 0.784239,1.40363 1.246496,0.72932 0.312826,-0.73109 -0.41971,-1.29595 -0.629234,-1.93523 -2.144548,-4.00254 -5.189087,-7.355 -8.767315,-9.76855 2.949889,-1.15293 6.143402,-2.65022 7.761634,-5.8389 1.709568,-3.45023 0.121352,-8.2989 -3.127001,-9.77132 -3.752071,-2.26747 -8.145923,-2.16551 -12.308382,-2.1529 z m -31.270578,0.11196 c -0.840638,0.43083 -0.756306,1.66578 -1.189958,2.44835 -2.022754,5.68156 -4.034739,11.36794 -6.048164,17.05354 -0.935198,0.39111 -2.149535,0.24857 -2.87199,1.06478 -0.02063,0.82501 0.958056,0.80846 1.424629,0.47002 0.267767,-0.2166 1.086088,-0.35994 0.791134,0.22432 -0.871316,2.72724 -1.932714,5.37624 -2.751919,8.12466 0.162546,0.68946 1.21533,0.43582 1.145248,-0.26565 1.019191,-2.84442 2.02518,-5.69463 3.021797,-8.54895 3.7787,-0.93172 7.557488,-1.863 11.336176,-2.79477 1.2562,4.01274 2.396525,8.07154 3.790552,12.03088 0.566874,0.35635 1.165697,-0.61737 0.711592,-1.10868 -2.928791,-9.52001 -5.82519,-19.05279 -8.860391,-28.53165 -0.109147,-0.17137 -0.321695,-0.26324 -0.498706,-0.16685 z m 22.134223,0.48957 c -3.131375,0.0403 -6.265241,-0.0739 -9.394577,0.0965 -0.468725,0.44223 0.142175,1.28494 0.650485,1.00989 1.384032,0.12681 2.85084,-0.12418 4.182814,0.13611 0.571933,1.13107 0.07625,2.46204 0.248367,3.67866 0,7.68864 0,15.37729 0,23.06593 -1.712492,0.0611 -3.434938,-0.12866 -5.13883,0.13613 -0.414159,0.5994 0.355666,1.2153 0.871649,1.00067 3.414821,-0.051 6.850299,0.0616 10.252208,-0.0756 0.535457,-0.31474 0.07157,-1.37714 -0.489415,-1.07657 -1.47969,0.004 -2.959377,0.0112 -4.439066,0.0153 0,-8.95217 0,-17.90436 0,-26.85655 1.68289,-0.0718 3.436538,0.18254 5.07378,-0.17562 0.377235,-0.63313 -0.348969,-1.18865 -0.880631,-0.97648 -0.312261,0.006 -0.624522,0.0142 -0.936784,0.0215 z m 11.462331,0.50933 c 3.724834,0.0731 7.753565,0.38014 10.838657,2.96301 2.279888,2.02698 2.655067,6.24077 0.590164,8.60686 -2.093633,2.59714 -5.250522,3.62817 -8.21426,4.33897 -1.886167,0.4154 -3.810471,0.58057 -5.729769,0.67097 0,-5.49075 0,-10.98149 0,-16.47223 0.838186,-0.0429 1.676464,-0.0811 2.515208,-0.10759 z m -33.545303,1.45997 c 1.478979,4.74651 2.958375,9.49286 4.437094,14.23948 -3.505543,0.85614 -7.011237,1.7116 -10.516171,2.57083 1.993308,-5.7008 3.991988,-11.39931 5.990375,-17.09792 0.02957,0.0959 0.05913,0.19172 0.0887,0.28761 z"
       transform="matrix(1.0222273,0,0,0.98978004,-40.283221,-99.867822)" /><path
       id="path16"
       style="font-size:30.901px;line-height:1.25;font-family:'Comic Neue';-inkscape-font-specification:'Comic Neue, Normal';letter-spacing:0px;word-spacing:0px;stroke-width:0.210081"
       d="m 124.91602,0.20498891 c -2.89747,0.0650972 -5.80925,-0.064189 -8.69727,0.13476563 -1.51361,0.78333326 -1.66959,2.70898666 -1.60089,4.21913836 0.0935,7.7446961 -0.14622,15.5001011 0.18081,23.2374911 0.28019,1.280246 1.65131,2.281407 2.95953,1.914273 2.70969,-0.04298 5.4394,0.126191 8.13438,-0.161918 1.58147,-1.031303 1.67089,-3.234155 1.19531,-4.880859 -0.41218,-1.155539 -1.70831,-1.930922 -2.91833,-1.624525 -1.7643,0.0567 -3.5297,0.02697 -5.29456,0.03077 0,-1.781901 0,-3.563802 0,-5.345703 2.03192,-0.04429 4.08834,0.127226 6.10156,-0.173828 1.58711,-1.085279 1.67724,-3.341246 1.10938,-5.007813 -0.47212,-1.091843 -1.76102,-1.734383 -2.91445,-1.430944 -1.43214,0.01325 -2.8643,0.01747 -4.29649,0.01297 0,-1.4205728 0,-2.8411458 0,-4.2617187 2.33057,-0.031924 4.67767,0.1029532 6.99609,-0.1367187 1.58149,-0.9510473 1.73999,-3.112349 1.29324,-4.7289135 -0.29886,-0.9588855 -1.14915,-1.93589599 -2.24831,-1.79647719 z" /><path
       id="path15"
       style="font-size:30.901px;line-height:1.25;font-family:'Comic Neue';-inkscape-font-specification:'Comic Neue, Normal';letter-spacing:0px;word-spacing:0px;stroke-width:0.209149"
       d="m 105.05664,0.04873891 c -1.5044,0.30180224 -2.01027,2.05154019 -1.99203,3.39296869 0.0464,8.1257424 -0.0844,16.2576344 0.12733,24.3792054 0.18568,1.250846 1.4402,2.475074 2.7642,2.03218 2.26101,-0.402293 4.59673,-0.423894 6.81339,-1.030916 1.58443,-1.361362 1.66913,-3.927796 0.58594,-5.613281 -0.75497,-0.903265 -2.05749,-0.791968 -3.07295,-0.502787 -1.00042,0.128533 -2.00085,0.257066 -3.00127,0.385599 -0.0454,-6.972595 0.12393,-13.955782 -0.14594,-20.9210823 -0.22731,-0.9856596 -0.88765,-2.22659437 -2.07867,-2.12188679 z" /><path
       id="path14"
       style="font-size:30.901px;line-height:1.25;font-family:'Comic Neue';-inkscape-font-specification:'Comic Neue, Normal';letter-spacing:0px;word-spacing:0px;stroke-width:0.210792"
       d="M 87.921875,0.05850454 C 86.422523,0.50597131 86.145519,2.2677836 85.732675,3.5499812 84.828945,6.408291 83.925215,9.2666009 83.021484,12.124911 81.778104,8.3226199 80.770204,4.4344187 79.253906,0.72842641 78.429923,-0.46335642 76.332988,0.1077182 76.126759,1.5126143 c -0.91379,2.1572235 0.200448,4.4278924 0.821783,6.4976471 1.228553,3.8729816 2.441339,7.7509016 3.643255,11.6322276 -0.530401,2.447382 -1.843893,4.735 -1.892578,7.283203 -0.03165,1.266985 0.673444,2.899955 2.105469,2.994141 1.301915,-0.06868 1.867331,-1.482017 2.164941,-2.558648 C 85.356384,19.524675 88.05678,11.77985 90.279704,3.8961821 90.501473,2.4678263 90.017605,0.63503431 88.536436,0.09432892 88.339921,0.0254845 88.125696,0.02928949 87.921875,0.05850454 Z" /><path
       id="path13"
       style="font-size:30.901px;line-height:1.25;font-family:'Comic Neue';-inkscape-font-specification:'Comic Neue, Normal';letter-spacing:0px;word-spacing:0px;stroke-width:0.209992"
       d="m 133.74219,0.00967641 c -2.64154,0.09296788 -4.60311,2.45053299 -5.25768,4.84733319 -0.93192,3.5804675 -0.65857,7.8121054 1.91127,10.6758754 1.42708,1.672934 3.98822,2.149843 5.04758,4.125229 0.57541,1.394599 0.0742,3.466632 -1.53143,3.865831 -1.39348,0.101448 -2.26231,-1.378203 -2.40998,-2.580675 -0.16488,-1.101967 -0.8574,-2.407852 -2.12109,-2.416015 -1.31092,0.08953 -2.0062,1.490311 -2.05868,2.66592 -0.20585,2.301187 0.67884,4.611405 2.03524,6.439549 1.28892,1.693308 3.61165,2.873045 5.7143,2.039948 2.51956,-0.94123 3.92467,-3.556316 4.42722,-6.065802 0.85503,-3.687711 0.20261,-7.973744 -2.55437,-10.722796 -1.36439,-1.312159 -3.39179,-1.857266 -4.48148,-3.4560278 -0.63172,-1.122115 -0.18538,-2.9681618 1.25371,-3.141026 1.00991,-0.1689453 2.05029,0.7180263 1.92997,1.7608359 0.12415,1.1191262 0.82781,2.5349029 2.12452,2.5057379 1.39977,-0.159064 1.95159,-1.7684044 1.98616,-2.9877042 0.19673,-2.7258385 -0.86975,-5.8383111 -3.45081,-7.11285402 -0.80173,-0.36013777 -1.69202,-0.46894992 -2.56445,-0.44335937 z" /><path
       id="path12"
       style="font-size:30.901px;line-height:1.25;font-family:'Comic Neue';-inkscape-font-specification:'Comic Neue, Normal';letter-spacing:0px;word-spacing:0px;stroke-width:0.210478"
       d="m 96.15625,0.00967641 c -2.479371,0.4936992 -4.026971,2.78967669 -4.983498,4.95122779 -2.664834,5.9772298 -3.193596,12.9417078 -1.27818,19.2114438 0.814318,2.47629 2.517698,4.983192 5.168479,5.67454 2.380827,0.509887 4.755995,-1.007476 5.921329,-3.026664 1.16581,-1.767066 1.99687,-4.11031 1.07031,-6.158204 -0.40502,-0.91552 -1.61213,-1.738718 -2.55371,-1.065864 -1.354531,0.992466 -1.263268,3.235076 -2.999027,3.810005 -1.324729,0.31348 -2.275932,-1.008379 -2.685867,-2.090223 -0.939515,-2.328911 -0.824377,-4.924355 -0.62628,-7.389363 0.278176,-2.451754 0.970705,-4.967508 2.40785,-6.9989298 0.569836,-0.6055382 1.869522,-0.4778121 1.934096,0.4931356 0.172352,0.9791436 0.536309,2.145537 1.624498,2.4287394 0.98419,0.3000248 2.01212,-0.4120248 2.22852,-1.3867187 0.62209,-1.6380949 0.33284,-3.4347273 0.33266,-5.1412952 C 101.58878,2.1940021 100.78113,0.87749495 99.515625,0.91787954 98.839691,1.2658403 98.436875,0.40545925 97.823533,0.28937481 97.300416,0.06653868 96.723546,-0.02659126 96.15625,0.00967641 Z" /><path
       id="text9"
       style="font-size:30.901px;line-height:1.25;font-family:'Comic Neue';-inkscape-font-specification:'Comic Neue, Normal';letter-spacing:0px;word-spacing:0px;stroke-width:0.210371"
       d="M 69.482422,0.00967641 C 66.96875,0.52966632 65.423349,2.8773108 64.461285,5.0745345 61.834477,11.083686 61.313441,18.067217 63.297775,24.339901 c 0.829246,2.427962 2.540047,4.880222 5.16302,5.51624 2.444298,0.491433 4.841714,-1.141343 5.976651,-3.232217 1.145152,-1.781368 1.899044,-4.183466 0.834038,-6.176747 -0.468292,-0.859765 -1.726161,-1.524369 -2.558543,-0.755191 -1.229745,1.037714 -1.19423,3.19102 -2.902,3.712024 -1.341665,0.29163 -2.283174,-1.05984 -2.682035,-2.158005 -0.962265,-2.479554 -0.8008,-5.218152 -0.533291,-7.821442 0.340307,-2.33602 0.984679,-4.7105539 2.461026,-6.6062928 0.636964,-0.5441495 1.883835,-0.1987989 1.845387,0.7391237 0.112347,1.1433282 0.921537,2.4955841 2.228942,2.3627723 C 74.411289,9.7732484 74.860893,8.3479926 75.03125,7.2596765 75.183457,5.8312605 75.10712,4.3759229 74.97266,2.9530358 74.768051,1.967731 73.958849,0.78446844 72.827786,0.96347023 72.117075,1.175303 71.692704,0.37055682 71.041016,0.24209828 70.544246,0.05687446 70.012719,-0.03069407 69.482422,0.00967641 Z" /><text
       xml:space="preserve"
       transform="scale(0.26458333)"
       id="text19"
       style="font-size:18.6667px;line-height:1.25;font-family:'DejaVu Sans';-inkscape-font-specification:'DejaVu Sans, Normal';letter-spacing:0px;word-spacing:0px;white-space:pre;shape-inside:url(#rect19);display:inline" /><path
       style="font-size:42.6667px;line-height:1.25;font-family:'Comic Neue';-inkscape-font-specification:'Comic Neue, Normal';letter-spacing:0px;word-spacing:0px;white-space:pre"
       d="m 10.069341,190.38468 c 4.949337,0 8.66134,-2.688 8.78934,-8.70401 l 0.469333,-19.49868 c 0,-0.81067 -0.64,-1.36533 -1.365334,-1.36533 -1.024001,0 -1.322668,0.768 -1.322668,1.74933 -1.109334,-0.59733 -2.645335,-1.28 -4.565336,-1.28 -5.7600046,0 -10.1120079,5.376 -10.1120079,11.13601 0,5.84534 3.6693361,10.15467 8.4906729,10.15467 2.304002,-0.0427 4.352003,-1.152 5.802671,-3.11467 l -0.08533,2.13334 c -0.170667,3.712 -1.749335,6.144 -6.144005,6.144 -3.0720022,0 -4.0106695,-0.59733 -4.8640035,-0.59733 -0.7253339,0 -1.3653343,0.55467 -1.3653343,1.32267 0,0.64 0.4693336,1.152 1.0666674,1.28 1.3226677,0.29866 3.2000024,0.64 5.2053374,0.64 z m 0.04267,-10.36801 c -4.0106701,0 -5.7173381,-4.352 -5.7173381,-7.50934 0,-4.90667 3.541336,-8.57601 7.8506721,-8.57601 1.578668,0 3.285336,0.55467 4.181337,1.28001 v 6.016 c 0,6.69867 -3.370669,8.78934 -6.314671,8.78934 z m 17.493376,-22.05868 c 0.682667,0 1.322668,-0.512 1.322668,-1.28 l 0.04267,-1.74934 c 0,-0.64 -0.597334,-1.32267 -1.280001,-1.32267 -0.682668,0 -1.365335,0.59734 -1.365335,1.28 l -0.04267,1.74934 c 0,0.72533 0.597334,1.32267 1.322668,1.32267 z m -0.256,24.66135 c 0.725334,0 1.365334,-0.64 1.365334,-1.36534 l 0.256001,-18.51734 c 0,-0.768 -0.597334,-1.408 -1.365335,-1.408 -0.725334,0 -1.408001,0.64 -1.408001,1.408 l -0.256,18.51734 c 0,0.72534 0.64,1.36534 1.408001,1.36534 z m 10.709311,0.0427 c 0.682667,0 1.322668,-0.59734 1.322668,-1.28001 v -17.40801 h 4.77867 c 0.768001,0 1.365334,-0.64 1.365334,-1.36533 0,-0.768 -0.597333,-1.32267 -1.365334,-1.32267 h -4.77867 v -5.84534 c 0,-0.72533 -0.512001,-1.36533 -1.322668,-1.36533 -0.768,0 -1.365334,0.64 -1.365334,1.36533 v 5.84534 h -4.65067 c -0.725334,0 -1.408001,0.512 -1.408001,1.32267 0,0.72533 0.597333,1.36533 1.322667,1.36533 h 4.736004 V 181.382 c 0,0.68267 0.64,1.28001 1.365334,1.28001 z m 11.135977,0 c 0.725334,0 1.322668,-0.51201 1.322668,-1.40801 v -6.912 c 0,-1.408 0.128,-2.64534 0.64,-3.66934 0.640001,-1.36533 3.88267,-6.82667 7.381339,-6.82667 1.450668,0 3.285336,1.32267 3.285336,12.11734 0,2.60267 -0.08533,4.65067 -0.08533,5.37601 0,0.68266 0.640001,1.28 1.322668,1.28 0.725334,0 1.237334,-0.55467 1.280001,-1.28 0.128,-1.45067 0.128,-2.85867 0.128,-5.67467 0,-9.64268 -1.408001,-14.46401 -5.717338,-14.46401 -3.370669,0 -6.656005,3.328 -8.234672,6.57067 v -13.09868 c 0,-0.72533 -0.512001,-1.36533 -1.322668,-1.36533 -0.768001,0 -1.365334,0.64 -1.365334,1.36533 v 26.66669 c 0,0.68266 0.64,1.32267 1.365334,1.32267 z m 27.30666,0.0853 c 3.157336,0 5.888005,-1.792 6.997339,-3.24267 v 1.62133 c 0,0.85334 0.597334,1.49334 1.493334,1.49334 0.725334,0 1.408001,-0.64 1.408001,-1.32267 v -18.81601 c 0,-0.72534 -0.597333,-1.19467 -1.280001,-1.19467 -0.64,0 -1.280001,0.46933 -1.280001,1.19467 L 83.669338,175.494 c 0,0.512 0,1.32267 -0.512001,1.92 -0.853334,0.98134 -3.754669,2.944 -6.613338,2.944 -2.816002,0 -3.88267,-2.47466 -3.88267,-8.40534 0,-6.22933 0.512001,-7.936 0.512001,-9.38667 0,-0.81067 -0.554667,-1.28 -1.237334,-1.28 -0.810668,0 -1.194668,0.46933 -1.365335,1.57867 -0.341333,2.00533 -0.554667,5.07733 -0.512,9.088 0.08533,8.32001 2.005335,10.79468 6.442671,10.79468 z m 17.322663,-0.128 c 0.725334,0 1.280001,-0.59734 1.280001,-1.152 V 181.126 c 1.280001,0.55467 3.541336,1.19467 5.632004,1.19467 6.44267,0 9.30134,-4.82134 9.30134,-11.26401 0,-5.80267 -3.02934,-9.38667 -7.46667,-9.38667 -2.858671,0 -5.58934,1.19467 -7.424008,3.28534 v -10.45335 c 0,-0.72533 -0.64,-1.19466 -1.280001,-1.19466 -0.725333,0 -1.365334,0.46933 -1.365334,1.19466 V 181.382 c 0,0.68267 0.640001,1.23734 1.322668,1.23734 z m 6.570675,-2.85867 c -2.261339,0 -4.480007,-0.72533 -5.248008,-1.06667 v -8.576 c 0,-3.20001 3.242669,-5.76001 7.381338,-5.76001 2.944,0 4.94934,2.38934 4.94934,6.69867 0,5.24801 -1.87734,8.70401 -7.08267,8.70401 z m 13.52535,2.85867 c 0.93867,0 1.83467,-0.93867 1.83467,-2.13334 0,-0.93866 -0.68267,-1.664 -1.536,-1.664 -0.93867,0 -1.83467,0.98134 -1.83467,2.048 0,0.98134 0.64,1.74934 1.536,1.74934 z m 14.80534,0 c 3.584,0 6.48534,-1.96267 7.808,-3.92534 0.256,-0.34133 0.42667,-0.64 0.42667,-0.98133 0,-0.68267 -0.59733,-1.28 -1.32267,-1.28 -0.512,0 -0.896,0.34133 -1.19466,0.768 -1.19467,1.70667 -2.94401,2.944 -5.71734,2.944 -3.02934,0 -6.69867,-2.38934 -6.69867,-6.86934 0,-4.77867 3.49867,-9.47201 6.99733,-9.47201 2.13334,0 3.28534,0.93867 4.39467,2.26134 0.256,0.29867 0.55467,0.46933 0.98134,0.46933 0.72533,0 1.28,-0.59733 1.28,-1.32266 0,-0.29867 -0.128,-0.68267 -0.34133,-0.89601 -1.62134,-1.87733 -3.24267,-2.98666 -6.40001,-2.98666 -4.94934,0 -9.51467,6.144 -9.51467,12.03201 0,5.248 4.26667,9.25867 9.30134,9.25867 z m 19.92537,0 c 5.376,0 9.94134,-5.24801 9.94134,-11.52001 0,-5.46134 -3.75467,-9.77067 -8.61868,-9.77067 -5.76,0 -9.984,5.71733 -9.984,11.47734 0,5.504 3.75467,9.81334 8.66134,9.81334 z m 0.17066,-2.432 c -3.15733,0 -6.05867,-2.90134 -6.05867,-7.46668 0,-4.65067 3.15734,-8.96 6.99734,-8.96 3.456,0 6.10134,3.54133 6.10134,7.552 0,4.73601 -3.328,8.87468 -7.04001,8.87468 z m 16.46931,2.432 c 0.72534,0 1.32267,-0.59734 1.32267,-1.28 V 174.982 c 0,-3.328 0.384,-4.77867 1.92,-6.95467 1.49334,-2.09067 3.71201,-4.18134 5.80267,-4.18134 2.304,0 3.28534,1.49334 3.28534,5.07734 v 12.41601 c 0,0.68266 0.64,1.28 1.36533,1.28 0.768,0 1.32267,-0.59734 1.32267,-1.28 v -9.64268 c 0,-4.90667 4.26667,-7.85067 6.61334,-7.85067 2.176,0 3.37067,1.45067 3.37067,5.07734 v 12.41601 c 0,0.68266 0.59733,1.28 1.32267,1.28 0.72533,0 1.36533,-0.59734 1.36533,-1.28 V 169.222 c 0,-5.71734 -2.47467,-7.89334 -5.71734,-7.89334 -2.304,0 -5.07733,1.28 -7.25334,4.82133 -0.81066,-3.84 -3.24266,-4.82133 -5.33333,-4.82133 -2.90134,0 -6.18667,2.51733 -8.06401,6.22933 v -4.90667 c 0,-0.68266 -0.55467,-1.32266 -1.32267,-1.32266 -0.72533,0 -1.36533,0.64 -1.36533,1.32266 v 18.68802 c 0,0.68266 0.64,1.28 1.36533,1.28 z m 33.10936,4.94934 c 0.46933,0 0.896,-0.21334 1.024,-0.59734 l 13.35467,-31.70136 c 0.128,-0.256 0.384,-0.68266 0.384,-1.06666 0,-0.512 -0.55466,-1.10934 -1.19466,-1.10934 -0.42667,0 -0.896,0.17067 -1.10934,0.59734 l -13.52534,32.04269 c -0.0853,0.21333 -0.128,0.42666 -0.128,0.68266 0,0.59734 0.46933,1.15201 1.19467,1.15201 z m 23.0827,-4.94934 c 3.584,0 6.48534,-1.96267 7.808,-3.92534 0.256,-0.34133 0.42667,-0.64 0.42667,-0.98133 0,-0.68267 -0.59733,-1.28 -1.32267,-1.28 -0.512,0 -0.896,0.34133 -1.19466,0.768 -1.19467,1.70667 -2.94401,2.944 -5.71734,2.944 -3.02934,0 -6.69867,-2.38934 -6.69867,-6.86934 0,-4.77867 3.49867,-9.47201 6.99734,-9.47201 2.13333,0 3.28533,0.93867 4.39467,2.26134 0.256,0.29867 0.55466,0.46933 0.98133,0.46933 0.72533,0 1.28,-0.59733 1.28,-1.32266 0,-0.29867 -0.128,-0.68267 -0.34133,-0.89601 -1.62134,-1.87733 -3.24267,-2.98666 -6.40001,-2.98666 -4.94934,0 -9.51467,6.144 -9.51467,12.03201 0,5.248 4.26667,9.25867 9.30134,9.25867 z m 19.37068,0 c 3.45601,0 8.83201,-2.34667 8.83201,-8.78934 0,-3.37067 -1.62133,-6.27201 -4.69334,-7.68001 2.38934,-1.36533 4.05334,-3.62667 4.05334,-6.272 0,-3.66934 -3.62667,-6.52801 -8.23467,-6.52801 -2.47467,0 -4.56534,0.85334 -5.80267,1.62134 -1.19467,0.768 -1.45067,1.32267 -1.45067,1.792 0,0.59733 0.42667,1.32267 1.32267,1.32267 0.34133,0 0.55466,-0.128 0.93866,-0.42667 0.64,-0.46933 2.09067,-1.62133 4.99201,-1.62133 3.584,0 5.54667,2.00533 5.54667,3.84 0,2.73067 -3.328,5.03467 -6.27201,5.03467 -0.768,0 -1.32266,0.55467 -1.32266,1.32267 0,0.72533 0.55466,1.32266 1.28,1.32266 1.96267,0 6.99734,1.10934 6.99734,6.27201 0,4.18134 -3.37067,6.10134 -6.27201,6.10134 -3.62667,0 -5.41867,-2.38934 -5.97334,-3.37067 -0.21333,-0.46934 -0.59733,-0.72534 -1.19466,-0.72534 -0.72534,0 -1.28001,0.512 -1.28001,1.23734 0,0.17066 0,0.512 0.21334,0.85333 0.256,0.55467 2.688,4.69334 8.32,4.69334 z m 16.51204,-24.66135 c 0.68267,0 1.32267,-0.512 1.32267,-1.28 l 0.0427,-1.74934 c 0,-0.64 -0.59733,-1.32267 -1.28,-1.32267 -0.68267,0 -1.36533,0.59734 -1.36533,1.28 l -0.0427,1.74934 c 0,0.72533 0.59733,1.32267 1.32267,1.32267 z m -0.256,24.66135 c 0.72533,0 1.36533,-0.64 1.36533,-1.36534 l 0.256,-18.51734 c 0,-0.768 -0.59733,-1.408 -1.36533,-1.408 -0.72534,0 -1.408,0.64 -1.408,1.408 l -0.256,18.51734 c 0,0.72534 0.64,1.36534 1.408,1.36534 z m 9.64263,0 c 0.768,0 1.28,-0.64 1.28,-1.408 l 0.0427,-3.79734 c 0.0427,-3.11467 0.768,-5.97334 2.688,-9.47201 1.45067,-2.64533 3.45601,-4.096 5.33334,-4.096 2.85867,0 4.01067,1.536 4.01067,9.55734 0,4.224 0.0427,5.97334 0.0427,7.89334 0,0.68267 0.59733,1.32267 1.28,1.32267 0.768,0 1.28,-0.64 1.28,-1.36534 0,-1.96266 0.0427,-3.66933 0.0427,-8.02134 0,-8.53333 -1.62134,-11.904 -6.27201,-11.904 -3.712,0 -6.74134,2.85866 -8.40534,7.97867 v -6.74134 c 0,-0.72533 -0.59733,-1.28 -1.32267,-1.28 -0.72533,0 -1.36533,0.55467 -1.36533,1.28 V 181.382 c 0,0.64 0.64,1.23734 1.36533,1.23734 z m 23.936,0 c 0.68267,0 1.32267,-0.59734 1.32267,-1.23734 v -17.62134 h 5.632 c 0.68267,0 1.23734,-0.59734 1.23734,-1.28 0,-0.64 -0.68267,-1.19467 -1.23734,-1.19467 l -5.632,-0.0427 c 0.0427,-4.77867 1.57867,-5.41867 6.44267,-5.41867 0.81067,0 1.28,-0.64 1.28,-1.32267 0,-0.98133 -0.768,-1.23733 -1.792,-1.23733 -5.97334,0 -8.53334,1.96267 -8.576,7.97867 h -3.11467 c -0.55467,0 -1.152,0.59734 -1.152,1.23734 0,0.68266 0.59733,1.28 1.23733,1.28 h 2.98667 V 181.382 c 0,0.64 0.64,1.23734 1.36533,1.23734 z m 15.65866,0.0853 c 4.52267,0 7.33868,-3.2 7.33868,-6.31467 0,-3.24267 -1.70667,-4.48 -6.57068,-6.10134 -3.37066,-1.10933 -4.864,-1.92 -4.864,-3.75467 0,-1.792 1.70667,-2.85867 4.82134,-2.85867 2.90133,0 4.13867,0.98134 4.13867,2.47467 0,0.384 -0.128,0.59734 -0.128,0.93867 0,0.64 0.55466,1.19467 1.32267,1.19467 0.81066,0 1.32266,-0.68267 1.32266,-2.09067 0,-2.944 -2.34667,-4.864 -6.656,-4.864 -4.86401,0 -7.33867,2.176 -7.33867,5.16267 0,3.11467 2.00533,4.77867 6.528,6.18667 4.05334,1.19467 4.90667,2.13333 4.90667,3.84 0,2.00534 -1.92,3.75467 -4.69334,3.75467 -2.77333,0 -4.65067,-1.32267 -5.46133,-3.584 -0.17067,-0.59734 -0.59734,-0.896 -1.19467,-0.896 -0.72533,0 -1.28,0.55466 -1.28,1.28 0,1.664 2.51733,5.632 7.808,5.632 z m 20.09601,-0.0853 c 3.584,0 6.48534,-1.96267 7.80801,-3.92534 0.256,-0.34133 0.42666,-0.64 0.42666,-0.98133 0,-0.68267 -0.59733,-1.28 -1.32266,-1.28 -0.512,0 -0.89601,0.34133 -1.19467,0.768 -1.19467,1.70667 -2.944,2.944 -5.71734,2.944 -3.02934,0 -6.69867,-2.38934 -6.69867,-6.86934 0,-4.77867 3.49867,-9.47201 6.99734,-9.47201 2.13333,0 3.28533,0.93867 4.39467,2.26134 0.256,0.29867 0.55466,0.46933 0.98133,0.46933 0.72534,0 1.28,-0.59733 1.28,-1.32266 0,-0.29867 -0.128,-0.68267 -0.34133,-0.89601 -1.62134,-1.87733 -3.24267,-2.98666 -6.40001,-2.98666 -4.94933,0 -9.51467,6.144 -9.51467,12.03201 0,5.248 4.26667,9.25867 9.30134,9.25867 z m 13.9947,0.0427 c 0.72533,0 1.32267,-0.51201 1.32267,-1.40801 v -6.912 c 0,-1.408 0.128,-2.64534 0.64,-3.66934 0.64,-1.36533 3.88267,-6.82667 7.38133,-6.82667 1.45067,0 3.28534,1.32267 3.28534,12.11734 0,2.60267 -0.0853,4.65067 -0.0853,5.37601 0,0.68266 0.64,1.28 1.32266,1.28 0.72534,0 1.23734,-0.55467 1.28001,-1.28 0.128,-1.45067 0.128,-2.85867 0.128,-5.67467 0,-9.64268 -1.40801,-14.46401 -5.71734,-14.46401 -3.37067,0 -6.65601,3.328 -8.23467,6.57067 v -13.09868 c 0,-0.72533 -0.51201,-1.36533 -1.32267,-1.36533 -0.768,0 -1.36534,0.64 -1.36534,1.36533 v 26.66669 c 0,0.68266 0.64,1.32267 1.36534,1.32267 z m 20.69332,4.90667 c 0.46933,0 0.896,-0.21334 1.024,-0.59734 l 13.35468,-31.70136 c 0.128,-0.256 0.384,-0.68266 0.384,-1.06666 0,-0.512 -0.55467,-1.10934 -1.19467,-1.10934 -0.42667,0 -0.896,0.17067 -1.10933,0.59734 l -13.52535,32.04269 c -0.0853,0.21333 -0.128,0.42666 -0.128,0.68266 0,0.59734 0.46934,1.15201 1.19467,1.15201 z m 29.18404,-4.60801 c 0.768,0 1.32267,-0.64 1.32267,-1.408 v -18.47468 c -0.72534,-0.34133 -3.37067,-1.74933 -6.48534,-1.74933 -6.61334,0 -10.24001,6.48533 -10.24001,12.07467 0,5.50401 3.456,9.21601 8.06401,9.21601 2.26133,0 4.52267,-0.98134 6.016,-2.26134 v 1.19467 c 0,0.768 0.42667,1.408 1.32267,1.408 z m -7.33867,-2.85867 c -3.11467,0 -5.33334,-2.60267 -5.33334,-6.784 0,-5.46134 3.328,-9.47201 7.59467,-9.47201 1.36534,0 3.02934,0.512 3.79734,0.85334 l -0.17067,12.928 c -0.98133,0.98134 -3.41333,2.47467 -5.888,2.47467 z m 16.98138,-22.14401 c 0.68267,0 1.32267,-0.512 1.32267,-1.28 l 0.0427,-1.74934 c 0,-0.64 -0.59733,-1.32267 -1.28,-1.32267 -0.68266,0 -1.36533,0.59734 -1.36533,1.28 l -0.0427,1.74934 c 0,0.72533 0.59734,1.32267 1.32267,1.32267 z m -0.256,24.66135 c 0.72533,0 1.36533,-0.64 1.36533,-1.36534 l 0.256,-18.51734 c 0,-0.768 -0.59733,-1.408 -1.36533,-1.408 -0.72533,0 -1.408,0.64 -1.408,1.408 l -0.256,18.51734 c 0,0.72534 0.64,1.36534 1.408,1.36534 z m 9.64264,0 c 0.68266,0 1.32266,-0.59734 1.32266,-1.23734 l 0.0427,-9.42934 c 0,-1.45066 0.55467,-3.37067 1.45067,-4.52267 1.45067,-1.92 3.28533,-3.584 5.20533,-3.584 1.15201,0 1.45067,0.55467 1.45067,1.23734 v 0.98133 c 0,0.64 0.29867,1.32267 1.23734,1.32267 0.768,0 1.32266,-0.55467 1.32266,-1.28 v -1.36534 c 0,-1.62133 -0.768,-3.54133 -3.54133,-3.54133 -3.54134,0 -5.84534,2.77333 -7.12534,5.03467 v -3.62667 c 0,-0.72534 -0.59733,-1.28 -1.36533,-1.28 -0.72534,0 -1.36534,0.55466 -1.36534,1.28 V 181.382 c 0,0.64 0.68267,1.23734 1.36534,1.23734 z m 22.2293,0 c 3.584,0 6.48534,-1.96267 7.808,-3.92534 0.256,-0.34133 0.42667,-0.64 0.42667,-0.98133 0,-0.68267 -0.59733,-1.28 -1.32267,-1.28 -0.512,0 -0.896,0.34133 -1.19467,0.768 -1.19466,1.70667 -2.944,2.944 -5.71733,2.944 -3.02934,0 -6.69867,-2.38934 -6.69867,-6.86934 0,-4.77867 3.49866,-9.47201 6.99733,-9.47201 2.13334,0 3.28534,0.93867 4.39467,2.26134 0.256,0.29867 0.55467,0.46933 0.98134,0.46933 0.72533,0 1.28,-0.59733 1.28,-1.32266 0,-0.29867 -0.128,-0.68267 -0.34133,-0.89601 -1.62134,-1.87733 -3.24267,-2.98666 -6.40001,-2.98666 -4.94934,0 -9.51467,6.144 -9.51467,12.03201 0,5.248 4.26667,9.25867 9.30134,9.25867 z m 14.63469,8.27734 c 0.59734,0 1.02401,-0.384 1.28001,-0.85334 l 12.33067,-26.88002 c 0.128,-0.21333 0.128,-0.34133 0.128,-0.59733 0,-0.768 -0.59733,-1.32267 -1.32267,-1.32267 -0.64,0 -1.06666,0.42667 -1.28,0.85334 l -6.69867,14.63467 -7.25334,-14.54934 c -0.21333,-0.46933 -0.68266,-0.896 -1.28,-0.896 -0.768,0 -1.36533,0.59733 -1.36533,1.36533 0,0.256 0.0853,0.512 0.17066,0.72534 l 8.27734,16.51201 -4.13867,9.04534 c -0.128,0.21333 -0.17066,0.42667 -0.17066,0.59733 0,0.768 0.59733,1.36534 1.32266,1.36534 z m 24.36274,-8.27734 c 3.58401,0 6.48534,-1.96267 7.80801,-3.92534 0.256,-0.34133 0.42667,-0.64 0.42667,-0.98133 0,-0.68267 -0.59734,-1.28 -1.32267,-1.28 -0.512,0 -0.896,0.34133 -1.19467,0.768 -1.19467,1.70667 -2.944,2.944 -5.71734,2.944 -3.02933,0 -6.69867,-2.38934 -6.69867,-6.86934 0,-4.77867 3.49867,-9.47201 6.99734,-9.47201 2.13334,0 3.28534,0.93867 4.39467,2.26134 0.256,0.29867 0.55467,0.46933 0.98133,0.46933 0.72534,0 1.28001,-0.59733 1.28001,-1.32266 0,-0.29867 -0.128,-0.68267 -0.34134,-0.89601 -1.62133,-1.87733 -3.24267,-2.98666 -6.4,-2.98666 -4.94934,0 -9.51468,6.144 -9.51468,12.03201 0,5.248 4.26667,9.25867 9.30134,9.25867 z m 13.99467,0 c 0.64,0 1.32267,-0.55467 1.32267,-1.19467 v -26.83735 c 0,-0.72534 -0.64,-1.28 -1.32267,-1.28 -0.768,0 -1.36533,0.55466 -1.36533,1.28 v 26.83735 c 0,0.64 0.68266,1.19467 1.36533,1.19467 z m 17.23736,0 c 2.60267,0 5.54667,-1.36534 7.04001,-3.072 0.17067,-0.21334 0.34133,-0.55467 0.34133,-0.85334 0,-0.72533 -0.55466,-1.28 -1.28,-1.28 -0.34133,0 -0.68267,0.17067 -0.85333,0.42667 -1.152,1.23733 -3.41334,2.304 -5.29067,2.304 -3.28534,0 -5.76001,-1.408 -7.21067,-4.13867 l 13.22667,-7.55201 c 0.72534,-0.42666 1.024,-0.896 1.024,-1.36533 0,-1.87733 -2.51733,-5.76 -8.02134,-5.76 -5.80267,0 -9.6,5.248 -9.6,11.05067 0,5.50401 4.18133,10.24001 10.624,10.24001 z m -8.064,-9.00267 c -0.0853,-0.51201 -0.0853,-0.89601 -0.0853,-1.36534 0.0853,-4.65067 2.98667,-8.40534 7.16801,-8.40534 2.944,0 4.56534,1.024 5.33334,2.90134 z m 25.64264,9.088 c 4.52267,0 7.33868,-3.2 7.33868,-6.31467 0,-3.24267 -1.70667,-4.48 -6.57067,-6.10134 -3.37067,-1.10933 -4.86401,-1.92 -4.86401,-3.75467 0,-1.792 1.70667,-2.85867 4.82134,-2.85867 2.90133,0 4.13867,0.98134 4.13867,2.47467 0,0.384 -0.128,0.59734 -0.128,0.93867 0,0.64 0.55467,1.19467 1.32267,1.19467 0.81066,0 1.32266,-0.68267 1.32266,-2.09067 0,-2.944 -2.34667,-4.864 -6.656,-4.864 -4.86401,0 -7.33867,2.176 -7.33867,5.16267 0,3.11467 2.00533,4.77867 6.528,6.18667 4.05334,1.19467 4.90667,2.13333 4.90667,3.84 0,2.00534 -1.92,3.75467 -4.69334,3.75467 -2.77333,0 -4.65067,-1.32267 -5.46133,-3.584 -0.17067,-0.59734 -0.59734,-0.896 -1.19467,-0.896 -0.72533,0 -1.28,0.55466 -1.28,1.28 0,1.664 2.51733,5.632 7.808,5.632 z"
       id="text1"
       transform="matrix(0.2629702,0,0,0.2629702,0.48388208,-5.3601461)"
       aria-label="github.com/c3infsch/aircycles" /></g></svg>
